<svg preserveAspectRatio="none" width="100%" height="100%" overflow="visible" style="display: block;" viewBox="0 0 990.428 1239.19" fill="none" xmlns="http://www.w3.org/2000/svg">
<g id="Group 1000003689" opacity="0.31">
<path id="Vector 4866" d="M438.661 430.629C443.324 464.926 434.85 499.716 438.556 535.404C439.439 543.976 440.743 552.595 442.239 561.354C448.6 599.363 456.801 639.913 450.038 681.309C442.507 729.388 423.4 779.685 396.249 819.708C394.588 822.319 392.874 824.847 391.09 827.331C361.37 868.62 319.628 886.904 290.158 899.473C278.332 904.823 266.276 909.223 254.146 912.743C204.418 927.101 154.513 926.933 108.059 919.108C77.6424 913.706 49.7082 906.389 20.2794 892.887C18.4584 892 16.6279 890.962 14.8305 889.72C6.91027 884.62 1.91759 874.986 0.825336 867.822C-0.912409 857.974 0.365981 849.94 2.15064 841.955C2.51415 840.432 2.91869 838.923 3.36615 837.427C5.91712 828.329 10.966 820.162 16.2769 813.492C17.1445 812.389 18.5121 811.657 20.0886 811.492C21.666 811.329 23.3228 811.724 24.738 812.606C26.1535 813.49 27.2398 814.802 27.8315 816.241C28.4186 817.681 28.4534 819.137 27.9834 820.319C24.9645 827.75 23.4843 834.048 23.6211 840.745C23.6249 841.984 23.6652 843.233 23.7423 844.473C24.0845 850.366 25.4436 856.77 27.4116 859.678C28.4947 861.518 29.5213 861.997 29.9889 861.752C25.0393 866.417 22.5993 871.731 25.1668 875.463C25.4742 875.909 25.8653 876.333 26.3339 876.708C27.7036 877.857 30.2106 878.677 32.0186 878.191C34.525 877.722 36.3633 876.099 38.4346 874.63C40.3794 873.033 42.3251 871.529 44.3128 871.297C47.6669 870.897 51.2594 868.701 55.0143 866.341C56.325 865.471 57.6786 864.581 59.0757 863.753C68.9569 864.2 78.6966 864.2 88.4907 863.844C92.1598 864.958 95.5087 865.839 98.4761 865.783C101.169 865.734 103.568 864.439 106.068 862.777C107.591 862.651 109.063 862.513 110.546 862.366C120.167 861.429 129.714 860.116 139.017 858.41C146.37 859.918 154.306 861.163 164.325 860.71C168.649 860.509 173.019 860.86 177.217 861.106C183.431 861.468 189.344 861.584 194.01 859.472C197.089 858.071 200.745 858.134 204.371 858.122C209.237 858.108 214.207 857.91 217.378 854.042C219.381 851.609 220.953 848.897 222.357 846.371C224.601 842.348 226.362 838.822 228.759 837.605C233.306 835.299 236.284 831.482 238.781 828.08C241.121 824.872 243.007 822.049 245.59 821.063C246.458 820.7 247.372 820.482 248.35 820.437C249.043 820.406 249.852 820.429 250.769 820.456C255.571 820.605 263.239 820.934 269.434 814.619C271.628 812.37 272.895 809.168 274 806.063C275.619 801.534 276.833 797.268 280.45 796.164C280.992 795.999 281.912 796.297 282.752 796.566C283.819 796.909 284.759 797.196 284.598 796.441C284.126 794.226 283.917 791.519 283.542 788.642C283.27 786.528 282.908 784.323 282.344 782.145C287.417 776.18 290.765 770.571 292.926 765.216C293.284 764.332 293.608 763.458 293.91 762.575C295.121 759.796 296.284 757.028 297.395 754.27C301.201 753.616 304.775 752.684 307.787 751.286C311.723 749.454 314.371 745.814 317.579 741.046C319.942 737.523 322.614 733.377 326.334 728.657C333.271 719.866 335.481 708.814 335.232 701.517C335.19 699.951 335.098 698.43 334.989 696.752C334.528 690.42 333.965 682.615 333.357 667.951C332.728 654.136 332.739 642.277 332.552 633.339C332.453 628.824 332.307 624.911 331.955 622.035C331.356 617.004 330.727 610.81 329.969 604.631C328.795 594.886 327.265 585.055 325.669 579.521C325.104 577.571 324.425 575.516 323.682 573.274C323.567 572.928 323.451 572.577 323.333 572.222C321.315 565.993 318.904 558.416 316.822 547.897C314.5 536.173 314.435 528.669 315.217 520.784C315.531 517.547 317.829 514.537 320.195 511.354C323.561 506.903 327.069 502.227 325.263 496.583C324.843 495.278 324.071 493.914 323.261 492.479C321.771 489.828 320.164 487.016 320.403 483.876C320.486 482.778 321.092 481.774 321.684 480.78C322.337 479.688 322.974 478.615 322.896 477.481C322.606 473.247 322.002 469.161 321.467 465.535C320.777 460.846 320.207 456.914 320.575 454.392C321.232 449.905 319.772 445.21 318.298 440.45C317.171 436.801 316.035 433.132 315.837 429.467C315.274 419.021 312.109 404.847 307.821 390.152C306.199 384.588 307.459 379.659 309.11 373.356C310.138 369.433 311.323 364.971 312.074 359.487C312.499 356.365 310.908 353.839 309.443 351.496C308.092 349.321 306.847 347.3 307.381 345.14C307.498 344.666 307.732 344.23 308.053 343.822C309.023 342.616 310.781 341.669 312.471 340.761C314.974 339.416 317.329 338.153 316.765 336.274C316.465 335.275 315.191 334.108 313.679 332.727C313.081 332.181 312.448 331.599 311.819 330.982C312.312 330.991 312.753 330.978 313.086 330.962C315.439 330.861 316.582 328.844 317.703 326.861C318.15 326.071 318.592 325.286 319.107 324.636C321.005 322.217 321.128 317.976 320.873 314.608C320.766 313.193 321.435 311.881 322.216 310.357C322.909 309.004 323.692 307.485 324.1 305.59C324.332 304.508 324.976 303.666 325.512 302.935C325.901 302.413 326.233 301.97 326.307 301.57C326.37 301.224 325.683 300.979 324.909 300.705C324.351 300.507 323.748 300.292 323.347 300.013C322.39 299.346 322.069 298.448 322.336 297.797C322.46 297.496 322.711 297.251 322.962 297.009C323.254 296.726 323.548 296.445 323.638 296.073C324.051 294.36 323.207 292.789 322.329 291.112C321.363 289.246 320.361 287.311 320.943 285.1C321.126 284.404 321.585 283.653 322.03 282.928C322.496 282.169 322.946 281.434 323.047 280.823C323.458 278.345 321.668 276.006 320.025 273.934C318.933 272.548 317.906 271.247 317.629 270.017C317.125 267.789 315.049 266.572 313.518 265.73C312.725 265.287 312.074 264.926 311.864 264.529C311.904 264.154 311.955 263.774 312.012 263.403C312.146 263.058 312.285 262.703 312.222 262.378C312.217 262.354 312.207 262.33 312.202 262.305C312.604 260.216 313.216 258.238 313.823 256.162C315.186 251.487 316.551 247.136 315.491 242.343C315.263 241.328 314.388 240.325 313.499 239.31C312.41 238.059 311.299 236.822 311.323 235.455C311.379 232.18 312.634 228.891 313.876 225.697C315.736 220.698 317.57 216.093 315.238 211.744C314.469 210.336 313.222 208.989 311.967 207.649C311.267 206.911 310.561 206.132 309.941 205.346C311.051 205.482 312.092 205.541 313.062 205.595C315.062 205.707 316.774 205.806 318.248 206.53C321.731 208.179 326.514 210.045 329.948 209.708C330.879 209.617 331.921 209.633 332.97 209.652C335.601 209.702 338.288 209.746 339.449 208.067C340.231 206.956 342.017 204.007 339.952 202.23C339.502 201.845 338.627 201.629 337.655 201.389C335.907 200.958 333.838 200.44 333.31 198.741C333.221 198.455 333.139 198.144 333.063 197.824C332.756 196.563 332.416 195.039 331.008 194.537C329.386 193.945 327.552 194.132 325.413 194.35C322.628 194.634 319.32 194.971 315.287 193.708C314.49 193.458 314.205 192.948 313.989 192.564C313.837 192.293 313.716 192.087 313.478 192.072C313.204 192.056 312.638 192.159 311.923 192.289C309.398 192.753 304.986 193.548 304.723 190.708C304.652 189.938 304.841 189.079 305.011 188.245C305.261 187.041 305.469 186.053 304.741 185.939C304.465 185.896 304.166 185.868 303.857 185.847C303.921 184.902 303.986 183.963 304.052 183.031C304.889 181.825 304.777 180.152 304.636 178.003C304.602 177.486 304.57 176.943 304.546 176.382C304.688 174.511 304.833 172.733 304.982 170.802C305.323 169.3 305.895 167.716 306.82 166.066C308.671 162.716 311.771 159.731 314.812 156.918C316.092 155.685 317.366 154.482 318.528 153.28C318.675 153.745 318.847 154.166 319.083 154.491C320.697 156.718 323.855 157.613 326.759 158.367C328.691 158.881 330.514 159.365 331.695 160.189C333.86 161.702 336.371 161.521 338.227 161.386C339.19 161.316 339.979 161.263 340.45 161.462C340.828 161.623 341.009 162.002 341.196 162.395C341.36 162.738 341.531 163.094 341.837 163.319C345.551 166.032 347.675 165.149 350.766 163.931C352.47 163.238 354.472 162.437 357.196 162.051C360.081 161.714 360.927 161.802 362.096 163.224C363.508 162.084 364.921 160.96 366.336 159.852C366.239 159.425 365.344 159.11 363.857 158.671C361.202 157.919 360.211 155.187 359.445 153.104C359.089 152.14 358.78 151.311 358.373 150.846C356.207 148.314 353.204 149.032 350.56 149.716C349.105 150.087 347.759 150.434 346.722 150.17C346.279 150.056 345.839 150.226 345.391 150.382C345.045 150.503 344.693 150.627 344.33 150.634C341.697 150.701 339.736 149.13 337.921 147.706C336.881 146.888 335.884 146.115 334.834 145.687C334.514 145.557 334.188 145.454 333.871 145.357C333.408 145.215 332.967 145.076 332.589 144.861C331.729 144.376 331.151 143.355 330.525 142.195C330.203 141.606 329.868 140.995 329.474 140.42C328.962 139.676 327.923 139.403 326.837 139.114C326.07 138.909 325.28 138.695 324.631 138.309C323.457 137.64 323.047 136.153 322.671 134.822C322.507 134.24 322.344 133.682 322.132 133.212C322.045 133.021 321.868 132.927 321.622 132.903C320.832 130.813 320.039 128.522 319.268 126.514C315.593 115.717 311.712 107.594 317.236 89.3402C317.84 87.4748 318.426 85.0848 319.059 82.5449C319.34 81.3689 319.54 80.1269 319.689 78.8356C322.974 70.6234 326.489 61.2428 332.566 50.1537C335.758 48.8355 338.866 46.9244 342.111 44.352C348.214 39.6043 353.247 33.2942 361.652 27.1159C363.606 25.6994 365.721 24.3361 368.028 23.0908C371.411 21.4452 375.223 19.9235 379.534 18.8977C390.149 16.3833 400.357 14.7162 411.283 12.452C422.183 10.17 434.349 8.3157 442.919 7.11586C447.575 6.44734 452.782 7.79587 457.512 9.17449C464.191 11.106 469.903 13.0915 473.042 9.21904C474.047 7.98103 474.982 5.90201 475.881 3.8877C476.527 2.45275 477.177 1.05256 477.842 0C479.804 0.190128 481.774 0.39345 483.711 0.621025C487.283 2.86245 492.588 5.27294 497.659 2.55804C499.636 2.87581 501.639 3.20872 503.521 3.56044C507.676 4.2982 511.69 5.11093 515.752 5.9936C517.062 6.28424 518.388 6.58273 519.719 6.88976C519.731 6.89314 519.744 6.89651 519.756 6.89989C522.452 7.51912 525.102 8.16756 527.74 8.84502C528.871 9.13444 529.993 9.4283 531.106 9.72618C533.938 10.4826 536.816 11.2772 539.583 12.0971C541.054 12.5329 542.551 12.9777 544.033 13.4339C546.421 14.1721 548.844 14.9395 551.235 15.7284C555.076 17.0003 558.905 18.3371 562.685 19.7285C563.305 19.9578 563.857 20.4541 564.21 21.128C564.563 21.8029 564.691 22.5976 564.561 23.3725C564.43 24.1477 564.049 24.8587 563.501 25.3823C562.954 25.9038 562.284 26.1903 561.634 26.2115C557.67 26.333 553.699 26.5009 549.765 26.7235C547.318 26.859 544.858 27.0189 542.448 27.1969C540.952 27.3054 539.452 27.4171 537.981 27.5427C535.213 27.7782 532.359 28.0344 529.577 28.3205C528.484 28.4341 527.385 28.5517 526.282 28.6739C523.702 28.9604 521.131 29.2683 518.538 29.6005C518.523 29.6024 518.507 29.6043 518.492 29.6062C517.224 29.7702 515.966 29.9416 514.728 30.1183C510.862 30.6526 507.09 31.2434 503.238 31.8877C501.273 32.2365 499.173 32.594 497.144 32.9749C496.011 33.1868 494.886 33.4055 493.768 33.6276C493.159 33.746 492.544 33.8654 491.928 33.9871C477.786 36.8573 464.138 40.5325 451.077 45.1736C438.105 49.8016 425.769 55.4202 415.278 62.0597C409.749 65.5599 404.709 69.3804 400.725 73.2693C401.121 74.182 401.148 75.1708 400.41 78.6219C399.341 83.6878 398.174 92.5834 396.936 102.774C401.529 165.48 417.395 258.394 426.335 337.96C426.431 338.749 426.528 339.538 426.626 340.33C428.198 353.052 429.903 366.209 431.641 379.124C433.39 392.183 435.17 405.037 436.974 418.253C437.528 422.274 438.088 426.389 438.661 430.629Z" fill="var(--stroke-0, white)"/>
<path id="Vector 4867" d="M439.597 463.871C465.338 462.904 489.952 475.703 515.747 476.318C532.782 476.726 550.089 473.862 567.452 471.63C582.81 469.661 598.198 468.188 613.375 469.888C645.493 473.506 677.892 478.517 710.057 484.929C742.243 491.344 774.323 499.175 806.116 508.539C816.609 511.637 827.13 514.911 837.493 518.322C858.5 525.217 879.297 532.712 899.933 541.069C920.843 549.609 941.511 558.761 961.691 570.204C967.802 573.762 973.611 577.167 980.044 582.31L980.677 582.723C983.156 585.243 985.629 587.808 987.987 591.791C989.376 594.301 991.814 599.073 989.417 604.553C986.048 610.409 982.725 610.537 980.02 611.744C977.243 612.669 974.642 613.225 972.068 613.753C971.067 613.953 969.89 613.571 968.777 612.662C967.663 611.751 966.702 610.397 966.083 608.848C965.464 607.299 965.231 605.65 965.404 604.228C965.578 602.809 966.14 601.741 966.931 601.213C968.955 599.869 970.883 598.508 972.209 597.252C972.855 596.638 973.354 596.023 973.353 595.713C973.403 595.472 972.594 595.28 971.277 597.75C970.245 599.771 970.353 602.349 970.56 603.378C970.758 604.505 970.814 604.768 970.611 604.851C970.035 604.937 968.149 603.93 966.129 603.195L967.135 603.853C964.253 603.235 959.434 602.207 954.958 601.525C956.328 594.73 956.59 589.28 954.314 586.067C953.226 584.452 951.088 583.227 949.05 583.909C947.168 584.504 945.522 586.125 943.862 587.644C942.123 589.232 940.606 590.786 939.046 591.031C936.464 591.469 933.455 593.627 930.432 595.952C929.325 596.796 928.136 597.643 927.031 598.453C919.759 597.91 912.392 597.498 905.018 597.189C902.375 595.826 900.104 594.711 897.822 594.493C895.881 594.321 893.806 595.35 891.643 596.726C890.495 596.695 889.379 596.673 888.228 596.646C880.842 596.473 873.362 596.355 865.973 596.318C860.741 593.49 855.083 590.674 847.515 588.608C844.204 587.71 841.127 586.204 838.078 584.754C834.492 583.058 831.228 581.483 827.895 581.065C827.038 580.958 826.186 580.935 825.339 581.016C822.622 581.27 820.081 579.914 817.458 578.557C814.016 576.748 810.522 574.949 806.835 577.099C804.517 578.45 802.366 580.19 800.33 581.802C797.129 584.371 794.345 586.628 792.1 586.519C787.91 586.317 784.035 588.017 780.61 589.525C776.544 591.345 773.069 592.878 770.535 590.496C770.145 590.134 769.705 589.662 769.207 589.127C766.559 586.301 762.354 581.79 755.448 583.278C752.936 583.803 750.561 585.609 748.149 587.377C744.61 589.948 741.355 592.469 738.105 590.892C737.633 590.658 737.199 589.823 736.8 589.061C736.293 588.092 735.847 587.246 735.473 587.91C734.376 589.857 732.724 591.969 730.919 594.269C729.582 595.958 728.234 597.756 726.932 599.655C718.268 600.012 709.623 600.379 700.98 600.739C696.96 600.9 693.085 601.071 689.056 601.228C687.259 598.015 685.43 595.108 683.379 592.864C680.663 589.929 677.1 588.843 672.331 587.443C668.871 586.415 664.812 585.22 660.143 583.017C651.485 578.937 642.263 579.227 636.358 580.824C635.097 581.161 633.822 581.525 632.452 581.922C627.359 583.438 620.95 585.331 608.848 587.243C597.448 589.056 587.749 589.283 580.549 589.471C576.819 589.565 573.75 589.643 571.401 589.923C569.066 590.201 566.407 590.446 563.588 590.68C561.584 590.851 559.499 591.016 557.398 591.182C549.517 591.796 541.749 592.439 537.238 593.465C535.658 593.831 533.994 594.292 532.189 594.785C527.157 596.151 521.178 597.806 512.836 598.657C504.181 599.555 498.746 598.696 493.221 596.961C490.961 596.256 489.002 593.608 486.975 590.874C484.099 586.994 481.138 582.946 476.957 584.062C475.982 584.323 474.935 584.926 473.839 585.559C471.817 586.722 469.669 587.985 467.479 587.379C466.717 587.167 466.054 586.448 465.403 585.743C464.687 584.967 463.985 584.209 463.175 584.154C460.149 583.95 457.196 584.081 454.587 584.199C451.217 584.352 448.383 584.481 446.633 583.837C443.505 582.688 440.092 583.629 436.609 584.59C433.954 585.323 431.259 586.071 428.678 585.893C421.293 585.386 411.089 587.154 400.576 590.193C396.599 591.342 393.254 589.69 388.966 587.572C386.298 586.255 383.26 584.751 379.482 583.64C377.34 583.01 375.514 584.441 373.822 585.763C372.26 586.981 370.813 588.107 369.342 587.455C368.043 586.879 367.236 584.446 366.469 582.135C365.615 579.563 364.811 577.144 363.439 577.606C362.709 577.853 361.816 579.062 360.755 580.498C360.336 581.066 359.886 581.667 359.411 582.263C359.438 581.77 359.446 581.33 359.449 580.997C359.464 578.641 358.069 577.393 356.702 576.17C356.155 575.681 355.612 575.199 355.166 574.65C353.525 572.628 350.402 572.284 348.02 572.366C347.011 572.4 346.103 571.666 345.033 570.808C344.085 570.047 343.017 569.188 341.653 568.686C340.875 568.399 340.281 567.714 339.789 567.142C339.433 566.728 339.13 566.374 338.848 566.28C338.604 566.2 338.404 566.874 338.179 567.634C338.017 568.18 337.842 568.773 337.627 569.159C337.115 570.082 336.46 570.358 336.003 570.059C335.792 569.921 335.626 569.658 335.461 569.396C335.269 569.09 335.078 568.783 334.813 568.674C333.598 568.178 332.419 568.944 331.176 569.739C329.814 570.614 328.396 571.523 326.825 570.836C326.33 570.62 325.805 570.126 325.296 569.647C324.763 569.145 324.246 568.662 323.806 568.532C322.018 568.005 320.335 569.685 318.79 571.23C317.754 572.258 316.775 573.225 315.87 573.445C314.21 573.848 313.318 575.868 312.66 577.36C312.32 578.133 312.042 578.767 311.751 578.959C311.486 578.902 311.216 578.835 310.953 578.762C310.711 578.612 310.461 578.459 310.226 578.507C310.208 578.511 310.191 578.519 310.173 578.523C308.698 578.031 307.252 577.333 305.818 576.638C302.576 575.076 299.353 573.531 295.978 574.398C295.25 574.585 294.509 575.42 293.756 576.268C292.831 577.307 291.904 578.37 290.925 578.293C288.61 578.11 286.282 576.734 283.997 575.378C280.566 573.339 277.214 571.349 274.104 573.54C273.082 574.264 272.088 575.468 271.093 576.681C270.539 577.358 269.982 578.04 269.421 578.636C269.538 577.53 269.6 576.492 269.658 575.524C269.777 573.528 269.879 571.82 270.417 570.368C271.689 566.937 273.137 562.215 272.971 558.773C272.926 557.839 272.96 556.798 272.997 555.751C273.091 553.122 273.186 550.438 271.992 549.225C271.188 548.408 269.125 546.533 267.824 548.546C267.541 548.984 267.37 549.853 267.179 550.818C266.836 552.552 266.433 554.605 265.195 555.086C264.984 555.167 264.755 555.24 264.518 555.308C263.573 555.579 262.518 555.879 262.126 557.273C261.676 558.88 261.778 560.718 261.895 562.861C262.049 565.653 262.231 568.968 261.264 572.967C261.073 573.758 260.705 574.029 260.427 574.235C260.232 574.381 260.082 574.497 260.068 574.735C260.052 575.008 260.116 575.576 260.197 576.295C260.485 578.83 260.981 583.26 258.949 583.453C258.399 583.505 257.771 583.296 257.209 583.107C256.379 582.828 255.693 582.598 255.603 583.324C255.569 583.599 255.545 583.897 255.526 584.206C254.868 584.121 254.211 584.036 253.555 583.95C252.723 583.089 251.506 583.166 250.014 583.267C249.651 583.292 249.269 583.315 248.872 583.328C247.561 583.154 246.254 582.981 244.952 582.804C243.918 582.441 242.821 581.848 241.664 580.905C239.367 579.015 237.26 575.892 235.271 572.838C234.428 571.551 233.595 570.274 232.752 569.109C233.077 568.963 233.371 568.792 233.597 568.557C235.143 566.95 235.756 563.799 236.319 560.899C236.694 558.97 237.048 557.15 237.645 555.975C238.737 553.822 238.616 551.31 238.527 549.453C238.48 548.489 238.445 547.7 238.59 547.231C238.707 546.854 238.98 546.677 239.262 546.492C239.508 546.332 239.762 546.164 239.924 545.861C241.849 542.174 241.256 540.042 240.396 536.938C239.927 535.227 239.351 533.218 239.085 530.491C238.853 527.603 238.923 526.757 239.957 525.602C239.141 524.179 238.326 522.756 237.513 521.332C237.197 521.427 236.961 522.32 236.632 523.803C236.042 526.453 234.093 527.429 232.581 528.193C231.881 528.546 231.273 528.855 230.931 529.263C229.115 531.431 229.663 534.434 230.143 537.076C230.408 538.531 230.652 539.877 230.472 540.914C230.396 541.357 230.51 541.797 230.626 542.244C230.716 542.591 230.807 542.943 230.813 543.305C230.85 545.939 229.78 547.9 228.793 549.72C228.227 550.763 227.691 551.763 227.384 552.815C227.292 553.136 227.22 553.463 227.151 553.781C227.052 554.244 226.955 554.686 226.801 555.065C226.452 555.928 225.726 556.513 224.933 557.15C224.526 557.477 224.102 557.818 223.703 558.219C223.185 558.739 223.004 559.782 222.812 560.871C222.677 561.641 222.536 562.434 222.271 563.088C221.791 564.271 220.813 564.703 219.91 565.104C219.516 565.278 219.136 565.452 218.817 565.674C218.687 565.765 218.625 565.944 218.613 566.19C217.134 567.024 215.739 567.875 214.328 568.709C207.363 572.892 201.351 576.522 192.407 574.003C190.678 573.528 188.841 573.643 187.007 574.054C181.205 573.077 175.195 572.075 169.294 571.052C168.087 568.694 166.629 566.718 164.934 565.176C161.824 562.278 158.387 561.697 154.593 561.01C153.853 560.877 153.096 560.74 152.318 560.581C150.018 560.137 147.548 559.523 144.849 558.349C138.575 555.676 132.145 553.444 124.981 552.372C117.85 551.303 109.525 550.608 103.817 550.449C100.584 550.364 97.3071 548.336 94.1138 546.46C89.7204 543.818 85.7479 541.467 83.4475 545.168C82.73 546.35 82.082 548.38 81.4629 550.352C81.0293 551.757 80.576 553.13 80.1149 554.158C78.7757 553.897 77.468 553.641 76.192 553.379C73.7455 551.074 70.014 548.659 66.7529 551.514C65.3685 551.253 64.0063 550.995 62.7408 550.73C59.846 550.19 57.0877 549.648 54.2972 549.12C53.3621 548.947 52.4447 548.774 51.5478 548.6C51.5387 548.598 51.5296 548.596 51.5205 548.594C49.604 548.253 47.758 547.913 45.9212 547.581C45.1665 547.437 44.3147 547.304 43.5455 547.165C41.5562 546.817 39.5003 546.49 37.5513 546.166C36.4625 545.999 35.4586 545.831 34.3634 545.675C32.6685 545.411 30.8834 545.174 29.1685 544.942C26.3462 544.573 23.5173 544.248 20.6269 543.945C20.1537 543.894 19.6505 543.572 19.2299 543.026C18.8091 542.48 18.5024 541.758 18.3737 540.983C18.2451 540.207 18.3021 539.423 18.525 538.771C18.7476 538.122 19.1222 537.663 19.5571 537.465C22.2178 536.262 24.8961 535.083 27.636 533.955C29.296 533.262 31.052 532.571 32.7253 531.918C33.8114 531.509 34.803 531.121 35.8896 530.727C37.8265 529.996 39.891 529.274 41.8832 528.582C42.6532 528.311 43.5121 528.034 44.2659 527.768C46.1149 527.138 47.9725 526.525 49.9087 525.918C49.9205 525.914 49.931 525.911 49.942 525.907C50.8357 525.613 51.7538 525.319 52.6883 525.027C55.4946 524.143 58.2731 523.286 61.1887 522.444C62.6113 521.998 64.2275 521.554 65.7372 521.115C66.5707 520.871 67.4188 520.626 68.2672 520.385C68.729 520.256 69.2131 520.127 69.6827 519.998C80.3211 516.987 90.9809 514.212 101.744 511.592C112.498 508.975 123.197 506.521 133.914 504.191C139.668 502.924 145.486 501.694 151.43 500.498C156.17 499.5 161.236 498.522 166.025 497.57C234.121 484.319 302.496 474.064 371.076 468.129C380.862 467.279 390.902 466.535 400.711 465.887C410.629 465.24 420.351 464.688 430.293 464.249C433.311 464.111 436.42 463.986 439.597 463.871Z" fill="var(--stroke-0, white)"/>
<path id="Vector 4868" d="M590.887 895.357C591.981 924.448 579.53 952.363 579.477 981.765C579.463 989.235 579.965 997.007 580.747 1004.52C583.751 1032.81 591.303 1060.71 591.663 1086.23C591.781 1094.73 592.075 1103.16 592.539 1110.01C592.816 1116.79 594.284 1122.23 591.951 1119.14C587.556 1113.39 586.337 1115.1 588.33 1117.14C590.215 1119.35 594.398 1122.44 599.384 1125.33C599.573 1125.44 599.764 1125.55 599.956 1125.66C597.755 1125.09 596.813 1125.2 596.566 1125.39C596.32 1125.6 596.749 1125.93 597.443 1126.24C598.934 1126.87 601.535 1127.45 604.593 1127.86C610.678 1128.69 618.268 1128.97 626.101 1128.94C641.892 1128.86 658.979 1127.62 676.191 1125.92C710.961 1122.45 746.71 1117.12 782.3 1110.72C790.719 1109.2 799.179 1107.6 807.587 1105.93L807.211 1106.08C822.246 1102.93 836.836 1098.83 851.072 1092.95C856.922 1090.54 862.697 1087.85 868.41 1084.88L868.109 1085.12C871.664 1083.11 875.046 1081.06 878.345 1078.77C884.654 1074.42 890.707 1069.15 896.605 1063.59C897.431 1062.81 898.706 1062.42 900.182 1062.54C901.664 1062.65 903.239 1063.23 904.585 1064.21C905.933 1065.2 906.964 1066.53 907.496 1067.93C908.029 1069.31 907.993 1070.68 907.444 1071.72C903.475 1079.25 899.09 1086.88 893.557 1094.3C890.76 1098.06 887.698 1101.7 884.697 1105.08L884.226 1105.45C880.569 1109.28 876.769 1113.01 872.811 1116.64C867.708 1111.82 863.172 1108.62 858.797 1108.66C856.559 1108.69 853.966 1109.7 852.849 1111.83C851.847 1113.74 851.649 1116.2 851.431 1118.55C851.204 1121 850.949 1123.35 849.736 1124.77C847.681 1127.19 846.51 1131.07 845.155 1135.14C844.662 1136.63 844.148 1138.14 843.563 1139.61C837.564 1143.66 831.437 1147.47 825.261 1151.07L824.793 1151.25C822.926 1152.31 821.049 1153.38 819.162 1154.43C815.689 1154.95 812.567 1155.48 810.157 1156.66C807.997 1157.72 806.436 1159.82 804.996 1162.25C803.778 1162.91 802.558 1163.57 801.335 1164.23C793.452 1168.48 785.502 1172.63 777.493 1176.69C770.343 1177.15 762.894 1177.73 753.68 1179.82C749.686 1180.72 745.588 1180.95 741.613 1181.17C735.763 1181.48 730.256 1181.74 726.04 1183.98C723.207 1185.48 719.741 1185.46 716.333 1185.41C711.692 1185.36 707.186 1185.25 703.946 1188.83C701.922 1191.08 700.226 1193.6 698.576 1195.95C695.954 1199.7 693.701 1202.94 691.048 1203.77C686.098 1205.33 682.235 1208.46 678.764 1211.21C674.616 1214.5 670.995 1217.25 667.063 1215.94C666.462 1215.75 665.763 1215.46 664.98 1215.14C660.846 1213.42 654.43 1210.63 646.313 1214.23C643.492 1215.5 640.842 1217.99 638.31 1220.38C634.557 1223.87 630.816 1227.22 625.979 1226.48C625.272 1226.36 624.475 1225.65 623.758 1225C622.844 1224.17 622.061 1223.44 621.705 1224.18C620.595 1226.33 618.719 1228.76 616.626 1231.38C615.134 1233.3 613.317 1235.33 611.67 1237.42C598.143 1238.54 586.407 1242.21 558.295 1233.88C557.858 1233.75 557.42 1233.61 556.983 1233.48C551.033 1231.65 544.916 1229.51 538.524 1226.79C536.739 1222.45 534.849 1218.29 532.516 1214.48C529.477 1209.47 524.206 1205.29 517.211 1198C512.156 1192.57 505.793 1185.36 500.636 1173.3C500.317 1172.54 500.002 1171.77 499.693 1170.99C492.914 1151.79 490.698 1139.8 487.07 1132.03C486.342 1130.36 485.605 1128.68 484.835 1126.92C481.946 1120.27 478.48 1112.02 474.708 1096.92C471.168 1082.55 470.043 1070.84 469.231 1061.93C468.819 1057.26 468.522 1053.74 468.074 1050.75C467.316 1045.95 466.625 1039.95 465.977 1033.88C464.962 1024.62 464.049 1015 462.892 1009.85C462.524 1008.17 462.08 1006.39 461.606 1004.46C461.549 1004.25 461.492 1004.03 461.434 1003.81C459.941 998.143 458.138 991.057 457.104 981.529C456.019 971.448 456.776 965.217 458.413 958.684C459.078 956.07 461.692 953.745 464.393 951.332C468.226 947.915 472.228 944.437 471.053 939.576C470.779 938.464 470.162 937.271 469.514 936.019C468.324 933.725 467.035 931.198 467.615 928.658C467.818 927.776 468.529 927 469.227 926.238C469.994 925.399 470.745 924.576 470.791 923.637C470.963 920.116 470.804 916.721 470.662 913.691C470.48 909.773 470.331 906.493 470.963 904.471C472.091 900.857 471.13 896.866 470.155 892.855C469.41 889.784 468.654 886.657 468.825 883.669C469.315 875.08 467.549 863.278 464.568 851.045C463.441 846.42 465.116 842.531 467.273 837.554C468.614 834.459 470.147 830.944 471.303 826.558C471.959 824.072 470.552 821.942 469.253 819.957C468.057 818.127 466.952 816.431 467.626 814.726C468.222 813.222 470.668 812.312 472.992 811.45C475.577 810.491 478.009 809.589 477.571 807.982C477.337 807.127 476.144 806.07 474.728 804.814C474.167 804.316 473.574 803.786 472.988 803.226C473.48 803.264 473.92 803.28 474.253 803.288C476.608 803.34 477.883 801.742 479.133 800.179C479.632 799.555 480.125 798.937 480.683 798.423C482.738 796.543 483.149 792.917 483.122 790.152C483.112 788.982 483.868 787.942 484.751 786.714C485.536 785.626 486.421 784.403 486.958 782.833C487.265 781.938 487.966 781.264 488.551 780.707C488.974 780.304 489.336 779.962 489.437 779.638C489.524 779.358 488.855 779.112 488.102 778.835C487.56 778.636 486.973 778.42 486.592 778.163C485.684 777.555 485.426 776.777 485.738 776.25C485.882 776.006 486.15 775.817 486.417 775.63C486.728 775.413 487.041 775.197 487.157 774.89C487.688 773.483 486.958 772.083 486.2 770.632C485.367 769.029 484.502 767.399 485.24 765.563C485.472 764.991 485.983 764.39 486.479 763.81C486.998 763.202 487.5 762.613 487.645 762.104C488.232 760.034 486.612 758.039 485.124 756.189C484.135 754.943 483.205 753.77 483.02 752.708C482.681 750.76 480.698 749.657 479.233 748.841C478.474 748.419 477.851 748.074 477.671 747.73C477.739 747.423 477.817 747.112 477.901 746.809C478.06 746.533 478.224 746.248 478.185 745.974C478.182 745.954 478.174 745.932 478.171 745.911C478.726 744.181 479.485 742.498 480.244 740.837C481.947 737.131 483.642 733.412 482.947 729.419C482.797 728.56 482.001 727.658 481.193 726.742C480.202 725.627 479.193 724.427 479.322 723.294C479.631 720.567 481.136 717.968 482.629 715.315C484.875 711.3 487.072 707.576 485.103 703.725C484.451 702.474 483.32 701.229 482.18 699.985C481.545 699.292 480.904 698.599 480.351 697.9C481.446 698.112 482.477 698.246 483.44 698.375C485.423 698.639 487.12 698.866 488.53 699.585C491.862 701.283 496.475 703.26 499.923 703.272C500.858 703.275 501.895 703.377 502.938 703.483C505.555 703.75 508.228 704.017 509.521 702.712C510.393 701.826 512.408 699.603 510.501 697.909C510.085 697.546 509.231 697.287 508.283 696.999C506.579 696.482 504.56 695.863 504.178 694.382C504.113 694.133 504.058 693.863 504.009 693.585C503.811 692.478 503.596 691.249 502.236 690.704C500.671 690.061 498.83 690.046 496.682 690.037C493.884 690.022 490.561 690.011 486.655 688.558C485.882 688.27 485.643 687.807 485.462 687.458C485.334 687.212 485.231 687.023 484.995 686.989C484.724 686.949 484.152 686.985 483.428 687.03C480.875 687.193 476.411 687.473 476.398 684.997C476.395 684.329 476.661 683.588 476.9 682.927C477.253 681.952 477.546 681.152 476.831 680.987C476.56 680.926 476.265 680.874 475.958 680.827C475.993 680.641 476.028 680.455 476.063 680.269C476.174 679.682 476.285 679.096 476.396 678.514C477.333 677.588 477.364 676.198 477.398 674.484C477.407 674.068 477.419 673.631 477.441 673.179C477.732 671.707 478.023 670.238 478.323 668.712C478.781 667.532 479.475 666.302 480.522 665.042C482.62 662.542 485.926 660.421 489.159 658.36C490.521 657.496 491.872 656.646 493.112 655.782C493.227 656.165 493.37 656.515 493.582 656.793C495.039 658.698 498.121 659.669 500.958 660.558C502.846 661.15 504.625 661.71 505.74 662.497C507.783 663.943 510.299 664 512.158 664.056C513.122 664.083 513.912 664.109 514.367 664.308C514.731 664.469 514.883 664.787 515.041 665.117C515.179 665.404 515.323 665.701 515.611 665.906C519.107 668.407 521.287 667.905 524.46 667.173C526.21 666.771 528.263 666.304 531.005 666.23C533.904 666.21 534.741 666.354 535.799 667.599C537.291 666.805 538.782 666.034 540.278 665.2C540.213 664.829 539.345 664.484 537.898 663.983C535.312 663.086 534.522 660.776 533.902 659.002C533.615 658.18 533.364 657.469 532.99 657.05C531.004 654.764 527.96 655.136 525.279 655.481C523.804 655.669 522.439 655.843 521.423 655.544C520.989 655.417 520.54 655.515 520.082 655.614C519.729 655.691 519.369 655.765 519.007 655.74C516.379 655.571 514.53 654.139 512.812 652.832C511.828 652.081 510.884 651.369 509.864 650.937C509.553 650.805 509.234 650.695 508.924 650.591C508.472 650.439 508.041 650.291 507.678 650.085C506.851 649.615 506.337 648.744 505.777 647.797C505.49 647.311 505.19 646.805 504.829 646.323C504.36 645.701 503.34 645.38 502.274 645.067C501.52 644.843 500.744 644.609 500.118 644.244C498.987 643.582 498.654 642.407 498.344 641.327C498.208 640.857 498.073 640.403 497.883 640.016C497.806 639.858 497.633 639.772 497.389 639.736C496.704 637.975 495.997 636.262 495.306 634.568C491.831 626.272 488.838 618.916 492.323 608.736C492.977 606.876 493.074 604.629 492.867 602.497C494.503 595.713 496.191 588.953 497.943 582.169C500.439 581.002 502.581 579.567 504.333 577.743C507.627 574.28 508.631 570.599 509.854 566.121C510.75 562.898 511.778 559.152 513.923 555.04C517.545 548.016 520.82 540.825 523.338 532.455C525.164 526.394 527.098 519.552 528.743 513.718C529.33 511.647 529.85 509.734 530.3 507.966C531.202 504.426 534.067 501.06 536.733 497.968C540.488 493.595 543.869 489.697 540.919 486.242C539.976 485.141 538.201 483.868 536.474 482.643C535.245 481.769 534.046 480.91 533.182 480.138C533.818 478.696 534.447 477.276 535.087 475.845C538.027 473.696 541.465 470.148 539.766 465.563C540.449 464.069 541.12 462.638 541.801 461.198C543.241 458.125 544.702 455.065 546.181 452.038C546.672 451.032 547.16 450.047 547.657 449.038C547.663 449.028 547.668 449.019 547.673 449.009C548.675 446.977 549.692 444.945 550.713 442.953C551.153 442.086 551.589 441.247 552.031 440.391C553.159 438.202 554.294 436.051 555.46 433.891C556.07 432.781 556.702 431.604 557.33 430.486C558.364 428.616 559.414 426.773 560.497 424.924C562.247 421.943 564.067 418.986 566.033 416.079C566.355 415.605 566.938 415.23 567.647 415.102C568.358 414.969 569.144 415.067 569.869 415.37C570.594 415.674 571.218 416.163 571.637 416.739C572.055 417.311 572.221 417.945 572.146 418.478C571.674 421.749 571.338 425.03 571.059 428.316C570.886 430.351 570.748 432.377 570.613 434.42C570.54 435.648 570.455 436.925 570.396 438.142C570.266 440.496 570.159 442.841 570.054 445.215C570.015 446.143 569.983 447.056 569.946 447.994C569.868 450.161 569.788 452.363 569.717 454.563C569.717 454.577 569.716 454.59 569.716 454.603C569.682 455.683 569.655 456.744 569.625 457.821C569.536 461.088 569.453 464.384 569.377 467.685C569.346 469.423 569.304 471.191 569.266 472.977C569.248 473.96 569.23 474.95 569.213 475.929C569.201 476.464 569.191 476.99 569.178 477.53C568.956 489.938 568.817 502.259 568.631 514.681C568.596 517.056 568.565 519.408 568.526 521.79C568.481 531.273 568.802 540.724 569.261 550.379C569.836 562.285 570.603 574.39 571.379 586.562C573.559 620.079 575.94 653.972 577.783 687.974C580.471 730.405 584.173 774.307 586.92 818.035C587.63 829.066 588.279 840.392 588.875 851.461C589.469 862.657 590.01 873.608 590.474 884.855C590.62 888.248 590.756 891.778 590.887 895.357Z" fill="var(--stroke-0, white)"/>
</g>
</svg>
