<svg preserveAspectRatio="none" width="100%" height="100%" overflow="visible" style="display: block;" viewBox="0 0 31.59 39.5258" fill="none" xmlns="http://www.w3.org/2000/svg">
<g id="Group 1000003689">
<path id="Vector 4866" d="M13.9912 13.735C14.1399 14.8289 13.8697 15.9386 13.9879 17.0769C14.016 17.3503 14.0576 17.6252 14.1054 17.9046C14.3082 19.1169 14.5698 20.4102 14.3541 21.7305C14.1139 23.264 13.5045 24.8683 12.6385 26.1448C12.5855 26.2281 12.5308 26.3087 12.4739 26.388C11.526 27.7049 10.1946 28.2881 9.25469 28.689C8.87749 28.8596 8.49295 28.9999 8.10606 29.1122C6.51998 29.5701 4.92825 29.5648 3.44657 29.3152C2.47642 29.1429 1.58546 28.9095 0.646818 28.4789C0.588738 28.4506 0.530353 28.4175 0.473024 28.3779C0.220405 28.2152 0.0611622 27.9079 0.0263244 27.6794C-0.0291015 27.3653 0.0116731 27.1091 0.0685953 26.8544C0.0801896 26.8058 0.0930924 26.7577 0.107364 26.71C0.188728 26.4198 0.349765 26.1593 0.519156 25.9466C0.546828 25.9114 0.590447 25.888 0.640732 25.8828C0.691042 25.8776 0.743889 25.8902 0.789027 25.9183C0.834173 25.9465 0.868821 25.9884 0.887694 26.0342C0.90642 26.0802 0.907528 26.1266 0.892538 26.1643C0.79625 26.4013 0.749038 26.6022 0.753403 26.8158C0.753524 26.8553 0.754808 26.8952 0.757268 26.9347C0.768183 27.1227 0.811531 27.3269 0.874302 27.4197C0.908846 27.4784 0.94159 27.4936 0.956504 27.4858C0.798635 27.6346 0.72081 27.8041 0.802703 27.9231C0.812507 27.9374 0.824981 27.9509 0.839927 27.9628C0.883611 27.9995 0.963577 28.0257 1.02124 28.0101C1.10118 27.9952 1.15982 27.9434 1.22588 27.8966C1.28791 27.8456 1.34997 27.7977 1.41337 27.7903C1.52035 27.7775 1.63493 27.7075 1.7547 27.6322C1.7965 27.6044 1.83967 27.5761 1.88424 27.5497C2.1994 27.5639 2.51005 27.5639 2.82244 27.5526C2.93946 27.5881 3.04628 27.6162 3.14092 27.6144C3.22681 27.6128 3.30333 27.5715 3.38306 27.5185C3.43165 27.5145 3.47858 27.5101 3.52588 27.5054C3.83275 27.4755 4.13728 27.4337 4.434 27.3792C4.66851 27.4273 4.92164 27.467 5.24119 27.4526C5.37912 27.4462 5.51847 27.4574 5.65239 27.4652C5.85057 27.4768 6.03918 27.4805 6.188 27.4131C6.2862 27.3684 6.40281 27.3704 6.51848 27.37C6.67366 27.3696 6.83219 27.3633 6.93334 27.2399C6.9972 27.1623 7.04736 27.0758 7.09216 26.9953C7.16372 26.8669 7.2199 26.7545 7.29634 26.7157C7.44135 26.6421 7.53633 26.5204 7.616 26.4119C7.69063 26.3095 7.75079 26.2195 7.83315 26.188C7.86086 26.1765 7.88999 26.1695 7.9212 26.1681C7.9433 26.1671 7.9691 26.1678 7.99835 26.1687C8.15152 26.1734 8.3961 26.1839 8.59366 25.9825C8.66365 25.9108 8.70406 25.8086 8.7393 25.7096C8.79093 25.5652 8.82966 25.4291 8.94504 25.3939C8.96233 25.3886 8.99165 25.3981 9.01846 25.4067C9.0525 25.4176 9.08248 25.4268 9.07732 25.4027C9.06228 25.3321 9.05561 25.2457 9.04367 25.154C9.03498 25.0865 9.02344 25.0162 9.00543 24.9467C9.16726 24.7565 9.27402 24.5776 9.34295 24.4068C9.35436 24.3786 9.36471 24.3507 9.37436 24.3226C9.41298 24.2339 9.45006 24.1456 9.48549 24.0577C9.60689 24.0368 9.7209 24.0071 9.81696 23.9625C9.94249 23.904 10.027 23.788 10.1293 23.6359C10.2046 23.5235 10.2899 23.3913 10.4085 23.2407C10.6298 22.9603 10.7003 22.6078 10.6923 22.3751C10.691 22.3251 10.688 22.2766 10.6846 22.2231C10.6699 22.0212 10.6519 21.7722 10.6325 21.3045C10.6125 20.8639 10.6128 20.4856 10.6068 20.2005C10.6037 20.0565 10.599 19.9317 10.5878 19.84C10.5687 19.6795 10.5486 19.482 10.5245 19.2849C10.487 18.9741 10.4382 18.6605 10.3873 18.484C10.3693 18.4218 10.3476 18.3562 10.3239 18.2847C10.3203 18.2737 10.3166 18.2625 10.3128 18.2512C10.2484 18.0525 10.1715 17.8108 10.1051 17.4753C10.0311 17.1014 10.029 16.862 10.054 16.6105C10.064 16.5073 10.1373 16.4113 10.2127 16.3098C10.3201 16.1678 10.432 16.0187 10.3744 15.8387C10.361 15.797 10.3363 15.7535 10.3105 15.7078C10.263 15.6232 10.2117 15.5335 10.2193 15.4334C10.222 15.3984 10.2413 15.3663 10.2602 15.3346C10.281 15.2998 10.3013 15.2656 10.2989 15.2294C10.2896 15.0943 10.2703 14.964 10.2533 14.8484C10.2313 14.6988 10.2131 14.5734 10.2248 14.493C10.2458 14.3499 10.1992 14.2001 10.1522 14.0483C10.1163 13.9319 10.08 13.8149 10.0737 13.698C10.0557 13.3648 9.95482 12.9127 9.81803 12.444C9.76631 12.2666 9.80651 12.1093 9.85916 11.9083C9.89194 11.7832 9.92973 11.6408 9.95369 11.4659C9.96726 11.3664 9.91651 11.2858 9.86977 11.2111C9.82668 11.1417 9.78699 11.0772 9.804 11.0083C9.80774 10.9932 9.81521 10.9793 9.82543 10.9663C9.85639 10.9278 9.91244 10.8976 9.96636 10.8687C10.0462 10.8258 10.1213 10.7855 10.1033 10.7256C10.0937 10.6937 10.0531 10.6565 10.0049 10.6124C9.98581 10.595 9.96561 10.5764 9.94556 10.5568C9.9613 10.5571 9.97534 10.5566 9.98596 10.5561C10.061 10.5529 10.0975 10.4886 10.1332 10.4253C10.1475 10.4001 10.1616 10.3751 10.178 10.3543C10.2385 10.2772 10.2425 10.1419 10.2343 10.0345C10.2309 9.98939 10.2523 9.94753 10.2772 9.89892C10.2993 9.85578 10.3243 9.80732 10.3373 9.74687C10.3447 9.71238 10.3652 9.68551 10.3823 9.66221C10.3947 9.64556 10.4053 9.63142 10.4076 9.61866C10.4097 9.60762 10.3877 9.59982 10.3631 9.59107C10.3453 9.58476 10.326 9.57792 10.3133 9.56901C10.2827 9.54772 10.2725 9.51908 10.281 9.49831C10.2849 9.48872 10.293 9.48092 10.301 9.47318C10.3103 9.46416 10.3196 9.4552 10.3225 9.44333C10.3357 9.3887 10.3088 9.33859 10.2808 9.2851C10.25 9.22558 10.218 9.16387 10.2366 9.09335C10.2424 9.07115 10.257 9.0472 10.2712 9.02407C10.2861 8.99986 10.3004 8.97642 10.3037 8.95695C10.3168 8.8779 10.2597 8.80329 10.2073 8.73721C10.1725 8.69299 10.1397 8.65152 10.1309 8.61227C10.1148 8.54122 10.0486 8.50239 9.99976 8.47553C9.97446 8.46141 9.95368 8.4499 9.947 8.43722C9.94828 8.42527 9.9499 8.41315 9.95172 8.40131C9.95599 8.39033 9.96041 8.37899 9.9584 8.36863C9.95825 8.36785 9.95794 8.36708 9.95778 8.3663C9.97058 8.29968 9.99011 8.23659 10.0095 8.17036C10.053 8.02125 10.0965 7.88248 10.0627 7.72959C10.0554 7.69724 10.0275 7.66524 9.99916 7.63285C9.96442 7.59296 9.92896 7.5535 9.92973 7.5099C9.93154 7.40545 9.97156 7.30056 10.0112 7.19866C10.0705 7.03924 10.129 6.89235 10.0546 6.75363C10.0301 6.70873 9.99031 6.66577 9.95026 6.62302C9.92796 6.5995 9.90543 6.57465 9.88565 6.54958C9.92107 6.55391 9.95426 6.55578 9.98521 6.55751C10.049 6.56107 10.1036 6.56423 10.1506 6.58732C10.2617 6.63992 10.4143 6.69944 10.5238 6.68871C10.5535 6.6858 10.5867 6.68629 10.6202 6.68691C10.7041 6.68851 10.7898 6.68992 10.8268 6.63635C10.8518 6.60092 10.9087 6.50685 10.8429 6.4502C10.8285 6.43791 10.8006 6.43103 10.7696 6.42336C10.7139 6.40962 10.6479 6.39308 10.631 6.3389C10.6282 6.32979 10.6256 6.31987 10.6231 6.30965C10.6134 6.26944 10.6025 6.22082 10.5576 6.20481C10.5058 6.18594 10.4474 6.19189 10.3791 6.19884C10.2903 6.2079 10.1848 6.21867 10.0562 6.17837C10.0307 6.17038 10.0217 6.15412 10.0148 6.14187C10.0099 6.13325 10.0061 6.12667 9.99846 6.1262C9.98974 6.12569 9.9717 6.12895 9.94887 6.13312C9.86835 6.14791 9.72761 6.17328 9.71922 6.08269C9.71697 6.05812 9.723 6.03073 9.72841 6.00414C9.7364 5.96573 9.74304 5.93422 9.71981 5.93057C9.711 5.92921 9.70147 5.92832 9.6916 5.92763C9.69365 5.8975 9.69572 5.86756 9.69781 5.83784C9.72451 5.79936 9.72094 5.74599 9.71646 5.67745C9.71537 5.66097 9.71434 5.64366 9.71358 5.62575C9.7181 5.56609 9.72272 5.50937 9.72749 5.44778C9.73837 5.39986 9.75662 5.34934 9.7861 5.29672C9.84516 5.18986 9.94404 5.09467 10.041 5.00493C10.0819 4.96563 10.1225 4.92724 10.1596 4.8889C10.1642 4.90374 10.1697 4.91718 10.1772 4.92754C10.2287 4.99856 10.3294 5.02712 10.4221 5.05117C10.4837 5.06755 10.5418 5.08298 10.5795 5.10928C10.6486 5.15754 10.7287 5.15177 10.7879 5.14746C10.8186 5.14524 10.8437 5.14353 10.8588 5.14988C10.8708 5.155 10.8766 5.1671 10.8826 5.17965C10.8878 5.19058 10.8932 5.20192 10.903 5.2091C11.0215 5.29565 11.0892 5.26748 11.1878 5.22862C11.2421 5.20651 11.306 5.18099 11.3929 5.16868C11.4849 5.15793 11.5119 5.16072 11.5491 5.20608C11.5942 5.16972 11.6393 5.13387 11.6844 5.09853C11.6813 5.0849 11.6527 5.07487 11.6053 5.06086C11.5207 5.03687 11.489 4.94972 11.4646 4.8833C11.4533 4.85254 11.4434 4.82612 11.4304 4.81127C11.3613 4.73052 11.2656 4.75342 11.1812 4.77522C11.1348 4.78707 11.0919 4.79813 11.0588 4.78972C11.0447 4.78609 11.0307 4.79151 11.0164 4.79647C11.0053 4.80033 10.9941 4.80431 10.9825 4.8045C10.8985 4.80665 10.836 4.75655 10.7781 4.71111C10.7449 4.68503 10.7131 4.66037 10.6796 4.64674C10.6694 4.64259 10.659 4.63929 10.6489 4.63619C10.6341 4.63166 10.6201 4.62725 10.608 4.62038C10.5806 4.60492 10.5622 4.57235 10.5422 4.53534C10.5319 4.51656 10.5212 4.49708 10.5087 4.47874C10.4924 4.455 10.4592 4.44631 10.4246 4.43707C10.4001 4.43055 10.3749 4.42371 10.3542 4.41141C10.3168 4.39006 10.3037 4.34263 10.2917 4.30018C10.2865 4.28163 10.2813 4.26382 10.2745 4.24883C10.2717 4.24273 10.2661 4.23975 10.2582 4.23898C10.233 4.17232 10.2077 4.09925 10.1832 4.0352C10.0659 3.69082 9.94214 3.43174 10.1183 2.84953C10.1376 2.79004 10.1563 2.7138 10.1765 2.63279C10.1854 2.59529 10.1918 2.55567 10.1966 2.51449C10.3014 2.25255 10.4135 1.95336 10.6073 1.59967C10.7091 1.55762 10.8082 1.49667 10.9117 1.41462C11.1064 1.26319 11.2669 1.06193 11.535 0.864871C11.5973 0.819691 11.6648 0.776208 11.7384 0.736487C11.8463 0.684 11.9678 0.635465 12.1054 0.602748C12.4439 0.52255 12.7695 0.469379 13.118 0.397159C13.4656 0.324376 13.8537 0.265231 14.127 0.226962C14.2755 0.20564 14.4416 0.248651 14.5925 0.292623C14.8055 0.354229 14.9877 0.417557 15.0878 0.294044C15.1199 0.254557 15.1497 0.188246 15.1784 0.123999C15.199 0.078231 15.2197 0.0335718 15.2409 0C15.3035 0.00606424 15.3663 0.0125492 15.4281 0.0198078C15.542 0.0912987 15.7112 0.168182 15.873 0.0815896C15.936 0.0917249 15.9999 0.102343 16.06 0.113561C16.1925 0.137092 16.3205 0.163014 16.4501 0.191168C16.4918 0.200438 16.5341 0.209958 16.5766 0.219751C16.577 0.219859 16.5774 0.219966 16.5778 0.220074C16.6638 0.239824 16.7483 0.260507 16.8324 0.282114C16.8685 0.291345 16.9043 0.300718 16.9398 0.310219C17.0301 0.334346 17.1219 0.35969 17.2102 0.38584C17.2571 0.399739 17.3048 0.413929 17.3521 0.428479C17.4283 0.452024 17.5056 0.476498 17.5818 0.50166C17.7043 0.542228 17.8264 0.584868 17.947 0.629245C17.9668 0.636558 17.9844 0.65239 17.9956 0.673884C18.0069 0.69541 18.011 0.720757 18.0068 0.745472C18.0027 0.770199 17.9905 0.792875 17.973 0.809577C17.9556 0.826211 17.9342 0.835347 17.9135 0.836022C17.787 0.839899 17.6604 0.845252 17.5349 0.852353C17.4569 0.856675 17.3784 0.861777 17.3015 0.867452C17.2538 0.870915 17.206 0.874477 17.1591 0.878482C17.0708 0.885994 16.9797 0.894164 16.891 0.90329C16.8562 0.906912 16.8211 0.910664 16.7859 0.914561C16.7036 0.923699 16.6216 0.933522 16.5389 0.944116C16.5384 0.944177 16.5379 0.944238 16.5374 0.9443C16.497 0.94953 16.4569 0.954996 16.4174 0.96063C16.2941 0.977672 16.1738 0.996516 16.0509 1.01707C15.9882 1.02819 15.9213 1.0396 15.8565 1.05174C15.8204 1.0585 15.7845 1.06548 15.7489 1.07256C15.7294 1.07634 15.7098 1.08015 15.6902 1.08403C15.2391 1.17557 14.8038 1.2928 14.3872 1.44082C13.9735 1.58844 13.58 1.76764 13.2454 1.97941C13.0691 2.09105 12.9083 2.21291 12.7812 2.33694C12.7939 2.36606 12.7947 2.39759 12.7712 2.50767C12.7371 2.66925 12.6999 2.95297 12.6604 3.27802C12.8069 5.27804 13.3129 8.24155 13.5981 10.7793C13.6011 10.8045 13.6042 10.8297 13.6073 10.8549C13.6575 11.2607 13.7119 11.6803 13.7673 12.0923C13.8231 12.5088 13.8799 12.9188 13.9374 13.3403C13.9551 13.4686 13.9729 13.5998 13.9912 13.735Z" fill="var(--stroke-0, white)"/>
<path id="Vector 4867" d="M14.0211 14.796C14.8421 14.7652 15.6272 15.1735 16.4499 15.1931C16.9933 15.2061 17.5453 15.1147 18.0991 15.0435C18.5889 14.9807 19.0797 14.9338 19.5638 14.988C20.5882 15.1034 21.6216 15.2632 22.6475 15.4677C23.6741 15.6723 24.6973 15.9221 25.7114 16.2208C26.046 16.3196 26.3816 16.424 26.7121 16.5328C27.3821 16.7527 28.0455 16.9918 28.7037 17.2583C29.3706 17.5307 30.0298 17.8226 30.6735 18.1876C30.8684 18.3011 31.0536 18.4097 31.2588 18.5737L31.279 18.5869C31.3581 18.6673 31.437 18.7491 31.5122 18.8761C31.5565 18.9562 31.6342 19.1084 31.5578 19.2832C31.4503 19.4699 31.3443 19.474 31.2581 19.5125C31.1695 19.542 31.0865 19.5598 31.0044 19.5766C30.9725 19.583 30.935 19.5708 30.8995 19.5418C30.8639 19.5127 30.8333 19.4696 30.8135 19.4202C30.7938 19.3707 30.7864 19.3181 30.7919 19.2728C30.7974 19.2275 30.8153 19.1935 30.8406 19.1766C30.9052 19.1337 30.9666 19.0904 31.0089 19.0503C31.05 19.0239 31.0735 18.9279 30.9792 19.0662C30.9161 19.2235 30.9808 19.2979 30.958 19.2927C30.9396 19.2954 30.8794 19.2633 30.815 19.2398L30.8471 19.2608C30.7552 19.2411 30.6015 19.2083 30.4587 19.1866C30.5024 18.9698 30.5108 18.796 30.4382 18.6935C30.4035 18.642 30.3353 18.603 30.2703 18.6247C30.2102 18.6437 30.1577 18.6954 30.1048 18.7438C30.0493 18.7945 30.0009 18.844 29.9512 18.8519C29.8688 18.8658 29.7728 18.9347 29.6764 19.0088C29.6411 19.0357 29.6032 19.0627 29.568 19.0886C29.336 19.0713 29.1011 19.0581 28.8658 19.0483C28.7816 19.0048 28.7091 18.9692 28.6363 18.9623C28.5744 18.9568 28.5082 18.9896 28.4392 19.0335C28.4026 19.0325 28.3671 19.0318 28.3303 19.031C28.0947 19.0254 27.8562 19.0217 27.6205 19.0205C27.4536 18.9303 27.2732 18.8405 27.0318 18.7746C26.9262 18.7459 26.828 18.6979 26.7308 18.6517C26.6164 18.5976 26.5123 18.5473 26.406 18.534C26.3787 18.5306 26.3515 18.5298 26.3245 18.5324C26.2378 18.5405 26.1567 18.4973 26.0731 18.454C25.9633 18.3963 25.8519 18.3389 25.7343 18.4075C25.6603 18.4506 25.5917 18.5061 25.5268 18.5575C25.4247 18.6394 25.3359 18.7114 25.2643 18.708C25.1307 18.7015 25.0071 18.7557 24.8978 18.8038C24.7681 18.8619 24.6573 18.9108 24.5765 18.8348C24.564 18.8233 24.55 18.8082 24.5341 18.7911C24.4497 18.701 24.3155 18.5571 24.0953 18.6046C24.0152 18.6213 23.9394 18.6789 23.8625 18.7353C23.7496 18.8173 23.6458 18.8977 23.5421 18.8474C23.527 18.84 23.5132 18.8133 23.5005 18.789C23.4843 18.7581 23.4701 18.7311 23.4582 18.7523C23.4232 18.8144 23.3705 18.8818 23.3129 18.9552C23.2703 19.009 23.2273 19.0664 23.1857 19.1269C22.9094 19.1383 22.6337 19.15 22.358 19.1615C22.2298 19.1667 22.1062 19.1721 21.9777 19.1771C21.9204 19.0746 21.862 18.9819 21.7966 18.9103C21.71 18.8167 21.5963 18.7821 21.4442 18.7374C21.3339 18.7046 21.2044 18.6665 21.0555 18.5963C20.7793 18.4661 20.4852 18.4754 20.2969 18.5263C20.2566 18.537 20.216 18.5487 20.1723 18.5613C20.0098 18.6097 19.8054 18.6701 19.4194 18.731C19.0558 18.7889 18.7465 18.7961 18.5168 18.8021C18.3978 18.8051 18.3 18.8076 18.225 18.8165C18.1506 18.8254 18.0658 18.8332 17.9758 18.8407C17.9119 18.8461 17.8454 18.8514 17.7784 18.8567C17.527 18.8763 17.2793 18.8968 17.1354 18.9295C17.085 18.9412 17.0319 18.9559 16.9744 18.9716C16.8139 19.0152 16.6232 19.0679 16.3571 19.0951C16.0811 19.1237 15.9077 19.0963 15.7315 19.041C15.6594 19.0185 15.5969 18.9341 15.5322 18.8469C15.4405 18.7231 15.3461 18.594 15.2127 18.6296C15.1816 18.6379 15.1482 18.6572 15.1133 18.6773C15.0488 18.7144 14.9803 18.7547 14.9104 18.7354C14.8861 18.7286 14.865 18.7057 14.8442 18.6832C14.8214 18.6585 14.799 18.6343 14.7731 18.6325C14.6766 18.626 14.5824 18.6302 14.4992 18.634C14.3917 18.6389 14.3013 18.643 14.2455 18.6224C14.1458 18.5858 14.0369 18.6158 13.9258 18.6464C13.8411 18.6698 13.7552 18.6937 13.6728 18.688C13.4373 18.6718 13.1118 18.7282 12.7765 18.8251C12.6497 18.8618 12.543 18.8091 12.4062 18.7415C12.3211 18.6995 12.2242 18.6516 12.1037 18.6161C12.0354 18.596 11.9772 18.6417 11.9232 18.6838C11.8734 18.7227 11.8272 18.7586 11.7803 18.7378C11.7389 18.7194 11.7131 18.6418 11.6887 18.5681C11.6614 18.4861 11.6358 18.4089 11.592 18.4237C11.5687 18.4315 11.5403 18.4701 11.5064 18.5159C11.4931 18.534 11.4787 18.5532 11.4636 18.5722C11.4644 18.5565 11.4647 18.5425 11.4648 18.5318C11.4652 18.4567 11.4208 18.4169 11.3771 18.3779C11.3597 18.3623 11.3424 18.3469 11.3282 18.3294C11.2758 18.2649 11.1762 18.2539 11.1002 18.2566C11.0681 18.2576 11.0391 18.2342 11.005 18.2069C10.9747 18.1826 10.9407 18.1552 10.8972 18.1392C10.8724 18.13 10.8534 18.1082 10.8377 18.0899C10.8263 18.0767 10.8167 18.0654 10.8077 18.0624C10.7999 18.0599 10.7935 18.0814 10.7864 18.1056C10.7812 18.123 10.7756 18.1419 10.7688 18.1543C10.7524 18.1837 10.7315 18.1925 10.717 18.183C10.7102 18.1786 10.7049 18.1702 10.6997 18.1618C10.6935 18.1521 10.6874 18.1422 10.679 18.1388C10.6402 18.123 10.6027 18.1474 10.563 18.1728C10.5195 18.2007 10.4743 18.2296 10.4242 18.2077C10.4084 18.2008 10.3917 18.1851 10.3754 18.1698C10.3585 18.1538 10.342 18.1384 10.3279 18.1342C10.2709 18.1174 10.2172 18.171 10.1679 18.2203C10.1349 18.2531 10.1037 18.2839 10.0748 18.291C10.0219 18.3038 9.99341 18.3682 9.97243 18.4158C9.96156 18.4405 9.9527 18.4607 9.94344 18.4668C9.93496 18.465 9.92637 18.4629 9.91796 18.4605C9.91025 18.4558 9.90228 18.4509 9.8948 18.4524C9.89423 18.4525 9.89367 18.4528 9.89311 18.4529C9.84606 18.4372 9.79994 18.415 9.75419 18.3928C9.65078 18.343 9.54798 18.2937 9.44034 18.3214C9.41713 18.3273 9.39349 18.3539 9.36949 18.381C9.33997 18.4141 9.3104 18.448 9.27917 18.4456C9.20534 18.4398 9.13108 18.3959 9.05821 18.3526C8.94876 18.2876 8.84188 18.2241 8.74267 18.294C8.71007 18.3171 8.67836 18.3555 8.64663 18.3942C8.62895 18.4158 8.61119 18.4375 8.59331 18.4565C8.59705 18.4213 8.59902 18.3881 8.60086 18.3573C8.60464 18.2936 8.6079 18.2391 8.62507 18.1928C8.66564 18.0834 8.71182 17.9328 8.70653 17.823C8.70509 17.7932 8.70617 17.76 8.70737 17.7266C8.71036 17.6427 8.71338 17.5571 8.67532 17.5185C8.64965 17.4924 8.58387 17.4326 8.54238 17.4968C8.53335 17.5108 8.52788 17.5385 8.5218 17.5693C8.51084 17.6246 8.498 17.6901 8.45851 17.7054C8.45178 17.708 8.44446 17.7103 8.43691 17.7125C8.40677 17.7211 8.37312 17.7307 8.36064 17.7752C8.34628 17.8264 8.34951 17.885 8.35327 17.9534C8.35817 18.0424 8.36397 18.1482 8.33314 18.2757C8.32703 18.3009 8.3153 18.3096 8.30645 18.3162C8.30021 18.3208 8.29545 18.3245 8.29498 18.3321C8.29447 18.3408 8.2965 18.3589 8.2991 18.3818C8.30828 18.4627 8.3241 18.604 8.25929 18.6102C8.24177 18.6118 8.22173 18.6052 8.20378 18.5991C8.17733 18.5902 8.15543 18.5829 8.15256 18.606C8.15149 18.6148 8.15074 18.6243 8.15012 18.6342C8.12913 18.6315 8.10818 18.6287 8.08726 18.626C8.06071 18.5985 8.02191 18.601 7.9743 18.6042C7.96273 18.605 7.95054 18.6058 7.93789 18.6062C7.89607 18.6006 7.85438 18.5951 7.81284 18.5895C7.77989 18.5779 7.74487 18.559 7.70799 18.5289C7.63473 18.4686 7.56752 18.369 7.50408 18.2716C7.47719 18.2306 7.45061 18.1898 7.42373 18.1527C7.4341 18.148 7.44347 18.1426 7.45068 18.1351C7.49999 18.0838 7.51955 17.9833 7.53751 17.8908C7.54947 17.8293 7.56077 17.7712 7.57978 17.7338C7.61462 17.6651 7.61077 17.585 7.60792 17.5257C7.60644 17.495 7.60531 17.4698 7.60993 17.4548C7.61366 17.4428 7.62237 17.4372 7.63136 17.4313C7.6392 17.4262 7.64732 17.4208 7.65247 17.4111C7.71389 17.2936 7.69497 17.2256 7.66753 17.1266C7.65259 17.072 7.63421 17.0079 7.62574 16.9209C7.61833 16.8288 7.62056 16.8018 7.65352 16.765C7.62752 16.7196 7.60152 16.6742 7.57559 16.6288C7.56551 16.6318 7.55799 16.6603 7.54747 16.7076C7.52866 16.7921 7.46651 16.8233 7.41828 16.8476C7.39594 16.8589 7.37654 16.8688 7.36564 16.8818C7.30772 16.9509 7.3252 17.0467 7.34052 17.131C7.34896 17.1774 7.35674 17.2203 7.35102 17.2534C7.34858 17.2675 7.35224 17.2815 7.35593 17.2958C7.35878 17.3069 7.36171 17.3181 7.36188 17.3296C7.36307 17.4136 7.32895 17.4762 7.29746 17.5342C7.27941 17.5675 7.26232 17.5994 7.25253 17.633C7.24959 17.6432 7.24727 17.6536 7.2451 17.6638C7.24192 17.6785 7.23883 17.6926 7.23393 17.7047C7.22278 17.7323 7.19963 17.7509 7.17434 17.7712C7.16137 17.7817 7.14785 17.7925 7.13511 17.8053C7.11859 17.8219 7.11281 17.8552 7.10671 17.8899C7.1024 17.9145 7.09788 17.9398 7.08944 17.9606C7.07414 17.9983 7.04295 18.0121 7.01413 18.0249C7.00158 18.0305 6.98945 18.036 6.97926 18.0431C6.97511 18.046 6.97315 18.0517 6.97276 18.0596C6.9256 18.0861 6.88111 18.1133 6.83608 18.1399C6.61394 18.2733 6.4222 18.3891 6.13693 18.3088C6.08177 18.2936 6.02318 18.2973 5.96468 18.3104C5.77962 18.2792 5.58795 18.2473 5.39972 18.2146C5.36123 18.1394 5.31473 18.0764 5.26066 18.0272C5.16146 17.9348 5.05184 17.9162 4.93082 17.8943C4.90723 17.8901 4.88308 17.8857 4.85828 17.8807C4.7849 17.8665 4.70612 17.8469 4.62004 17.8095C4.41992 17.7242 4.21483 17.653 3.98633 17.6188C3.75891 17.5847 3.49338 17.5626 3.31133 17.5575C3.20818 17.5548 3.10368 17.4901 3.00183 17.4303C2.8617 17.346 2.73499 17.271 2.66162 17.389C2.63874 17.4267 2.61807 17.4915 2.59832 17.5544C2.58449 17.5992 2.57004 17.643 2.55533 17.6758C2.51261 17.6675 2.4709 17.6593 2.43021 17.6509C2.35217 17.5774 2.23316 17.5004 2.12914 17.5915C2.08499 17.5831 2.04154 17.5749 2.00118 17.5665C1.90885 17.5492 1.82087 17.5319 1.73187 17.5151C1.70204 17.5096 1.67278 17.5041 1.64417 17.4985C1.64388 17.4985 1.64359 17.4984 1.6433 17.4983C1.58217 17.4874 1.5233 17.4766 1.46471 17.466C1.44064 17.4614 1.41347 17.4572 1.38894 17.4528C1.32549 17.4417 1.25991 17.4312 1.19775 17.4209C1.16302 17.4156 1.131 17.4102 1.09607 17.4052C1.04201 17.3968 0.985076 17.3892 0.930378 17.3818C0.840359 17.3701 0.750131 17.3597 0.657942 17.35C0.64285 17.3484 0.626797 17.3381 0.613384 17.3207C0.599961 17.3033 0.590179 17.2803 0.586075 17.2556C0.581974 17.2308 0.583792 17.2058 0.590899 17.185C0.598002 17.1643 0.609948 17.1497 0.623819 17.1434C0.708685 17.105 0.794109 17.0674 0.881499 17.0314C0.934444 17.0093 0.990455 16.9873 1.04382 16.9664C1.07846 16.9534 1.11009 16.941 1.14475 16.9284C1.20653 16.9051 1.27237 16.8821 1.33592 16.8601C1.36048 16.8514 1.38787 16.8425 1.41192 16.8341C1.47089 16.814 1.53014 16.7944 1.59189 16.7751C1.59227 16.7749 1.5926 16.7748 1.59296 16.7747C1.62146 16.7653 1.65074 16.756 1.68055 16.7467C1.77006 16.7185 1.85868 16.6911 1.95167 16.6643C1.99705 16.65 2.0486 16.6359 2.09675 16.6219C2.12333 16.6141 2.15038 16.6063 2.17744 16.5986C2.19217 16.5945 2.20761 16.5904 2.22259 16.5863C2.56191 16.4902 2.9019 16.4017 3.24519 16.3182C3.58821 16.2347 3.92945 16.1564 4.27126 16.0821C4.45481 16.0417 4.64034 16.0025 4.82995 15.9643C4.98113 15.9325 5.14272 15.9013 5.29544 15.8709C7.4674 15.4483 9.64822 15.1212 11.8356 14.9319C12.1477 14.9048 12.468 14.881 12.7808 14.8604C13.0972 14.8397 13.4072 14.8221 13.7244 14.8081C13.8206 14.8037 13.9198 14.7997 14.0211 14.796Z" fill="var(--stroke-0, white)"/>
<path id="Vector 4868" d="M18.8464 28.5591C18.8812 29.487 18.4841 30.3774 18.4824 31.3151C18.482 31.5534 18.498 31.8013 18.523 32.041C18.6188 32.9434 18.8596 33.8331 18.8711 34.6472C18.8749 34.9181 18.8843 35.1871 18.899 35.4055C18.9079 35.6218 18.9547 35.7952 18.8803 35.6967C18.7401 35.5133 18.7012 35.568 18.7648 35.6329C18.8249 35.7035 18.9583 35.8019 19.1174 35.8941C19.1234 35.8977 19.1295 35.9012 19.1356 35.9047C18.8827 35.8635 19.1089 35.9598 19.2835 35.9748C19.4776 36.0014 19.7197 36.0104 19.9695 36.0094C20.4732 36.0067 21.0182 35.9671 21.5672 35.9131C22.6761 35.8023 23.8164 35.6323 24.9515 35.4282C25.22 35.3798 25.4899 35.3286 25.758 35.2755L25.7461 35.2802C26.2256 35.1797 26.691 35.0489 27.145 34.8614C27.3316 34.7845 27.5158 34.6988 27.698 34.604L27.6884 34.6117C27.8018 34.5474 27.9097 34.4821 28.0149 34.4092C28.2161 34.2705 28.4092 34.1024 28.5973 33.925C28.6237 33.9002 28.6643 33.8878 28.7114 33.8915C28.7587 33.895 28.8089 33.9135 28.8518 33.9449C28.8948 33.9763 28.9277 34.0187 28.9447 34.0633C28.9617 34.1076 28.9606 34.1511 28.943 34.1844C28.8164 34.4244 28.6766 34.6677 28.5001 34.9045C28.4109 35.0245 28.3132 35.1405 28.2175 35.2482L28.2025 35.2602C28.0858 35.3823 27.9646 35.5014 27.8384 35.6171C27.6756 35.4633 27.531 35.3612 27.3914 35.3626C27.32 35.3635 27.2373 35.3956 27.2017 35.4635C27.1697 35.5245 27.1634 35.6029 27.1565 35.6779C27.1492 35.7562 27.1411 35.831 27.1024 35.8765C27.0369 35.9536 26.9995 36.0771 26.9563 36.2072C26.9406 36.2545 26.9242 36.3027 26.9055 36.3496C26.7142 36.4789 26.5188 36.6003 26.3218 36.7151L26.3069 36.721C26.2473 36.7549 26.1874 36.7887 26.1273 36.8225C26.0165 36.8391 25.9169 36.8558 25.84 36.8935C25.7711 36.9272 25.7214 36.9943 25.6754 37.0719C25.6366 37.0929 25.5977 37.114 25.5586 37.135C25.3072 37.2703 25.0536 37.4027 24.7982 37.5323C24.5701 37.5471 24.3326 37.5656 24.0387 37.632C23.9113 37.6608 23.7806 37.6683 23.6538 37.6752C23.4672 37.6852 23.2916 37.6933 23.1571 37.7648C23.0667 37.8127 22.9562 37.812 22.8475 37.8104C22.6995 37.8089 22.5558 37.8052 22.4524 37.9195C22.3879 37.9913 22.3337 38.0717 22.2811 38.1468C22.1975 38.2661 22.1256 38.3695 22.041 38.3962C21.8831 38.4459 21.7599 38.5457 21.6492 38.6333C21.5169 38.7384 21.4014 38.826 21.276 38.7844C21.2568 38.7781 21.2346 38.7691 21.2096 38.7587C21.0777 38.7037 20.8731 38.6148 20.6142 38.7298C20.5242 38.7703 20.4397 38.8495 20.3589 38.9258C20.2392 39.0372 20.1199 39.1439 19.9656 39.1203C19.9431 39.1167 19.9177 39.094 19.8948 39.0732C19.8656 39.0468 19.8406 39.0235 19.8293 39.0469C19.7939 39.1157 19.7341 39.1933 19.6673 39.2767C19.6197 39.3379 19.5617 39.4027 19.5092 39.4694C19.0778 39.505 18.7035 39.622 17.8068 39.3563C17.7929 39.3521 17.7789 39.3479 17.765 39.3436C17.5752 39.2854 17.3801 39.2169 17.1762 39.1303C17.1193 38.9918 17.059 38.8591 16.9846 38.7377C16.8877 38.5777 16.7195 38.4447 16.4964 38.2119C16.3352 38.0389 16.1323 37.809 15.9678 37.4242C15.9576 37.3998 15.9475 37.3753 15.9377 37.3505C15.7215 36.7382 15.6508 36.3558 15.5351 36.108C15.5119 36.0547 15.4884 36.0011 15.4638 35.9448C15.3716 35.7328 15.2611 35.4696 15.1408 34.9879C15.0279 34.5297 14.992 34.1561 14.9661 33.872C14.953 33.7232 14.9435 33.6107 14.9292 33.5156C14.905 33.3623 14.883 33.171 14.8623 32.9775C14.8299 32.682 14.8008 32.3752 14.7639 32.211C14.7522 32.1573 14.738 32.1005 14.7229 32.0391C14.7211 32.0322 14.7193 32.0253 14.7174 32.0184C14.6698 31.8375 14.6123 31.6115 14.5793 31.3076C14.5447 30.9861 14.5689 30.7873 14.6211 30.579C14.6423 30.4956 14.7256 30.4214 14.8118 30.3445C14.9341 30.2355 15.0617 30.1245 15.0242 29.9695C15.0155 29.934 14.9958 29.896 14.9751 29.8561C14.9372 29.7829 14.8961 29.7023 14.9146 29.6213C14.921 29.5931 14.9437 29.5684 14.966 29.5441C14.9905 29.5173 15.0144 29.4911 15.0159 29.4611C15.0213 29.3488 15.0163 29.2405 15.0118 29.1439C15.0059 29.0189 15.0012 28.9143 15.0213 28.8498C15.0573 28.7345 15.0267 28.6073 14.9956 28.4793C14.9718 28.3814 14.9477 28.2816 14.9532 28.1864C14.9688 27.9124 14.9124 27.536 14.8174 27.1458C14.7814 26.9983 14.8349 26.8742 14.9036 26.7155C14.9464 26.6168 14.9953 26.5047 15.0322 26.3648C15.0531 26.2855 15.0082 26.2175 14.9668 26.1542C14.9287 26.0959 14.8934 26.0418 14.9149 25.9874C14.9339 25.9394 15.0119 25.9104 15.0861 25.8829C15.1685 25.8523 15.2461 25.8236 15.2321 25.7723C15.2247 25.745 15.1866 25.7113 15.1414 25.6712C15.1235 25.6554 15.1046 25.6384 15.0859 25.6206C15.1016 25.6218 15.1157 25.6223 15.1263 25.6226C15.2014 25.6242 15.2421 25.5732 15.2819 25.5234C15.2978 25.5035 15.3136 25.4838 15.3314 25.4674C15.3969 25.4074 15.41 25.2918 15.4092 25.2036C15.4088 25.1663 15.4329 25.1331 15.4611 25.0939C15.4861 25.0592 15.5144 25.0202 15.5315 24.9702C15.5413 24.9416 15.5636 24.9201 15.5823 24.9023C15.5958 24.8895 15.6073 24.8786 15.6106 24.8683C15.6134 24.8593 15.592 24.8515 15.568 24.8426C15.5507 24.8363 15.532 24.8294 15.5198 24.8212C15.4909 24.8018 15.4826 24.777 15.4926 24.7602C15.4972 24.7524 15.5057 24.7464 15.5142 24.7404C15.5242 24.7335 15.5341 24.7266 15.5378 24.7168C15.5548 24.6719 15.5315 24.6273 15.5073 24.581C15.4808 24.5299 15.4532 24.4779 15.4767 24.4193C15.4841 24.4011 15.5004 24.3819 15.5162 24.3634C15.5328 24.344 15.5488 24.3252 15.5534 24.309C15.5721 24.243 15.5205 24.1793 15.473 24.1203C15.4415 24.0806 15.4118 24.0432 15.4059 24.0093C15.3951 23.9472 15.3318 23.912 15.2851 23.886C15.2609 23.8725 15.241 23.8615 15.2353 23.8505C15.2375 23.8407 15.24 23.8308 15.2426 23.8211C15.2477 23.8123 15.2529 23.8033 15.2517 23.7945C15.2516 23.7939 15.2513 23.7932 15.2512 23.7925C15.2689 23.7373 15.2932 23.6837 15.3174 23.6307C15.3717 23.5125 15.4257 23.3938 15.4036 23.2665C15.3988 23.2391 15.3734 23.2103 15.3476 23.1811C15.316 23.1455 15.2838 23.1073 15.288 23.0711C15.2978 22.9842 15.3458 22.9013 15.3934 22.8166C15.4651 22.6886 15.5352 22.5698 15.4723 22.447C15.4516 22.4071 15.4155 22.3674 15.3791 22.3277C15.3589 22.3056 15.3384 22.2835 15.3208 22.2612C15.3557 22.2679 15.3886 22.2722 15.4193 22.2763C15.4825 22.2848 15.5367 22.292 15.5816 22.3149C15.6879 22.3691 15.8351 22.4321 15.945 22.4325C15.9749 22.4326 16.0079 22.4359 16.0412 22.4393C16.1247 22.4478 16.2099 22.4563 16.2512 22.4147C16.279 22.3864 16.3433 22.3155 16.2824 22.2615C16.2691 22.2499 16.2419 22.2416 16.2117 22.2325C16.1573 22.216 16.0929 22.1962 16.0807 22.149C16.0787 22.141 16.0769 22.1324 16.0753 22.1236C16.0691 22.0882 16.0622 22.0491 16.0188 22.0317C15.9689 22.0112 15.9102 22.0107 15.8416 22.0104C15.7524 22.0099 15.6464 22.0096 15.5218 21.9632C15.4972 21.954 15.4896 21.9393 15.4838 21.9281C15.4797 21.9203 15.4764 21.9143 15.4689 21.9132C15.4603 21.9119 15.442 21.913 15.4189 21.9145C15.3375 21.9197 15.1951 21.9286 15.1947 21.8496C15.1946 21.8283 15.2031 21.8047 15.2107 21.7836C15.222 21.7525 15.2313 21.727 15.2085 21.7218C15.1999 21.7198 15.1904 21.7181 15.1807 21.7166C15.1818 21.7107 15.1829 21.7048 15.184 21.6988C15.1876 21.6801 15.1911 21.6614 15.1946 21.6429C15.2245 21.6133 15.2255 21.569 15.2266 21.5143C15.2269 21.5011 15.2272 21.4871 15.2279 21.4727C15.2373 21.4258 15.2465 21.3789 15.2561 21.3302C15.2707 21.2926 15.2928 21.2534 15.3262 21.2132C15.3931 21.1334 15.4986 21.0658 15.6017 21.0001C15.6451 20.9725 15.6882 20.9454 15.7278 20.9178C15.7315 20.93 15.736 20.9412 15.7428 20.9501C15.7893 21.0108 15.8876 21.0418 15.9781 21.0702C16.0382 21.089 16.095 21.1069 16.1306 21.132C16.1957 21.1781 16.276 21.1799 16.3353 21.1817C16.366 21.1826 16.3912 21.1834 16.4057 21.1898C16.4173 21.1949 16.4222 21.205 16.4272 21.2155C16.4316 21.2247 16.4362 21.2342 16.4454 21.2407C16.5569 21.3205 16.6264 21.3045 16.7276 21.2811C16.7835 21.2683 16.8489 21.2534 16.9364 21.2511C17.0289 21.2504 17.0556 21.255 17.0893 21.2947C17.1369 21.2694 17.1844 21.2448 17.2322 21.2182C17.2301 21.2064 17.2024 21.1954 17.1562 21.1794C17.0738 21.1508 17.0486 21.0771 17.0288 21.0205C17.0197 20.9943 17.0116 20.9716 16.9997 20.9583C16.9364 20.8854 16.8393 20.8972 16.7538 20.9082C16.7067 20.9142 16.6632 20.9198 16.6308 20.9102C16.6169 20.9062 16.6026 20.9093 16.588 20.9124C16.5767 20.9149 16.5653 20.9173 16.5537 20.9165C16.4699 20.9111 16.4109 20.8654 16.3561 20.8237C16.3247 20.7998 16.2946 20.7771 16.2621 20.7633C16.2522 20.7591 16.242 20.7556 16.2321 20.7523C16.2177 20.7474 16.2039 20.7427 16.1924 20.7361C16.166 20.7211 16.1496 20.6933 16.1318 20.6631C16.1226 20.6476 16.113 20.6315 16.1015 20.6161C16.0865 20.5963 16.054 20.586 16.02 20.5761C15.996 20.5689 15.9712 20.5615 15.9513 20.5498C15.9152 20.5287 15.9045 20.4912 15.8947 20.4568C15.8903 20.4418 15.886 20.4273 15.88 20.415C15.8775 20.4099 15.872 20.4072 15.8642 20.406C15.8423 20.3499 15.8198 20.2952 15.7978 20.2412C15.6869 19.9766 15.5915 19.742 15.7026 19.4173C15.7235 19.358 15.7266 19.2863 15.72 19.2183C15.7722 19.0019 15.826 18.7863 15.8819 18.5699C15.9615 18.5327 16.0298 18.4869 16.0857 18.4287C16.1907 18.3183 16.2228 18.2009 16.2618 18.0581C16.2904 17.9552 16.3231 17.8358 16.3916 17.7046C16.5071 17.4806 16.6115 17.2512 16.6919 16.9843C16.7501 16.791 16.8118 16.5727 16.8643 16.3867C16.883 16.3206 16.8996 16.2596 16.9139 16.2032C16.9427 16.0903 17.0341 15.9829 17.1191 15.8843C17.2389 15.7448 17.3467 15.6205 17.2526 15.5103C17.2225 15.4752 17.1659 15.4346 17.1108 15.3955C17.0716 15.3676 17.0334 15.3402 17.0058 15.3156C17.0261 15.2696 17.0462 15.2243 17.0666 15.1787C17.1604 15.1101 17.27 14.997 17.2158 14.8507C17.2376 14.8031 17.259 14.7575 17.2808 14.7115C17.3267 14.6135 17.3733 14.5159 17.4205 14.4193C17.4361 14.3873 17.4517 14.3558 17.4675 14.3237C17.4677 14.3234 17.4679 14.323 17.468 14.3227C17.5 14.2579 17.5324 14.1931 17.565 14.1296C17.579 14.1019 17.5929 14.0752 17.607 14.0479C17.643 13.978 17.6792 13.9094 17.7164 13.8406C17.7358 13.8051 17.756 13.7676 17.776 13.7319C17.809 13.6723 17.8425 13.6135 17.8771 13.5545C17.9329 13.4595 17.9909 13.3651 18.0536 13.2724C18.0639 13.2573 18.0825 13.2454 18.1051 13.2413C18.1278 13.237 18.1529 13.2402 18.176 13.2498C18.1991 13.2595 18.219 13.2751 18.2324 13.2935C18.2457 13.3117 18.251 13.3319 18.2486 13.3489C18.2335 13.4533 18.2228 13.5579 18.2139 13.6627C18.2084 13.7276 18.204 13.7922 18.1997 13.8574C18.1974 13.8966 18.1947 13.9373 18.1928 13.9761C18.1886 14.0512 18.1852 14.126 18.1819 14.2017C18.1806 14.2313 18.1796 14.2604 18.1784 14.2904C18.1759 14.3595 18.1734 14.4297 18.1711 14.4999C18.1711 14.5003 18.1711 14.5007 18.1711 14.5012C18.17 14.5356 18.1692 14.5694 18.1682 14.6038C18.1654 14.708 18.1627 14.8131 18.1603 14.9184C18.1593 14.9739 18.158 15.0302 18.1568 15.0872C18.1562 15.1186 18.1556 15.1501 18.1551 15.1813C18.1547 15.1984 18.1543 15.2152 18.1539 15.2324C18.1469 15.6282 18.1424 16.0212 18.1365 16.4174C18.1354 16.4931 18.1344 16.5681 18.1332 16.6441C18.1317 16.9466 18.1419 17.248 18.1566 17.556C18.1749 17.9357 18.1994 18.3218 18.2241 18.71C18.2937 19.7791 18.3696 20.8601 18.4284 21.9446C18.5141 23.298 18.6322 24.6982 18.7198 26.0929C18.7425 26.4448 18.7632 26.806 18.7822 27.1591C18.8011 27.5162 18.8184 27.8654 18.8332 28.2242C18.8379 28.3324 18.8422 28.445 18.8464 28.5591Z" fill="var(--stroke-0, white)"/>
</g>
</svg>
