<svg width="625" height="726" viewBox="0 0 625 726" fill="none" xmlns="http://www.w3.org/2000/svg">
<path d="M323.001 129.651C326.434 154.904 320.195 180.521 322.924 206.8C323.574 213.112 324.534 219.458 325.636 225.908C330.319 253.895 336.358 283.753 331.379 314.235C325.833 349.637 311.764 386.673 291.772 416.143C290.548 418.065 289.287 419.927 287.973 421.756C266.089 452.158 235.353 465.622 213.654 474.877C204.946 478.816 196.068 482.055 187.137 484.647C150.52 495.219 113.774 495.096 79.5676 489.334C57.1709 485.356 36.602 479.969 14.9326 470.027C13.5917 469.374 12.2439 468.61 10.9204 467.695C5.08842 463.939 1.41214 456.846 0.60788 451.571C-0.67168 444.319 0.26964 438.404 1.58375 432.524C1.85141 431.402 2.14928 430.291 2.47877 429.19C4.35713 422.491 8.07481 416.477 11.9854 411.566C12.6242 410.753 13.6312 410.214 14.7921 410.093C15.9536 409.973 17.1735 410.264 18.2156 410.913C19.2578 411.564 20.0577 412.53 20.4934 413.59C20.9258 414.65 20.9513 415.722 20.6053 416.593C18.3824 422.064 17.2924 426.702 17.3932 431.633C17.396 432.545 17.4256 433.465 17.4824 434.378C17.7344 438.717 18.7351 443.432 20.1843 445.574C20.9818 446.929 21.7377 447.281 22.082 447.101C18.4374 450.536 16.6408 454.449 18.5313 457.197C18.7577 457.525 19.0456 457.837 19.3907 458.113C20.3992 458.96 22.2453 459.563 23.5765 459.205C25.4221 458.861 26.7756 457.665 28.3009 456.583C29.7329 455.408 31.1656 454.3 32.6291 454.13C35.0989 453.835 37.7442 452.218 40.509 450.48C41.4741 449.839 42.4708 449.184 43.4996 448.575C50.7755 448.904 57.9471 448.904 65.1589 448.642C67.8605 449.462 70.3264 450.111 72.5114 450.069C74.4942 450.033 76.2607 449.08 78.1014 447.856C79.2232 447.763 80.3067 447.661 81.3986 447.553C88.483 446.863 95.5132 445.897 102.363 444.64C107.777 445.751 113.621 446.667 120.998 446.334C124.182 446.186 127.4 446.445 130.491 446.625C135.066 446.892 139.421 446.977 142.856 445.422C145.123 444.391 147.815 444.437 150.486 444.428C154.068 444.418 157.728 444.272 160.063 441.424C161.537 439.632 162.695 437.635 163.729 435.776C165.382 432.813 166.678 430.217 168.443 429.321C171.791 427.623 173.984 424.812 175.823 422.307C177.546 419.945 178.935 417.866 180.836 417.14C181.476 416.873 182.148 416.712 182.869 416.68C183.379 416.657 183.975 416.674 184.65 416.694C188.186 416.803 193.832 417.045 198.393 412.395C200.009 410.739 200.942 408.382 201.755 406.095C202.947 402.76 203.841 399.62 206.505 398.807C206.904 398.685 207.581 398.904 208.2 399.102C208.986 399.355 209.678 399.566 209.559 399.01C209.212 397.379 209.058 395.386 208.782 393.268C208.582 391.711 208.315 390.087 207.899 388.484C211.635 384.092 214.1 379.961 215.691 376.018C215.955 375.367 216.193 374.724 216.416 374.074C217.308 372.028 218.164 369.99 218.982 367.958C221.785 367.477 224.417 366.791 226.634 365.761C229.532 364.412 231.482 361.732 233.844 358.221C235.584 355.627 237.552 352.574 240.291 349.099C245.399 342.625 247.026 334.488 246.843 329.115C246.812 327.961 246.744 326.842 246.664 325.606C246.324 320.944 245.91 315.197 245.462 304.399C244.999 294.226 245.007 285.494 244.869 278.913C244.796 275.588 244.689 272.707 244.43 270.589C243.989 266.885 243.526 262.324 242.967 257.774C242.103 250.599 240.976 243.359 239.801 239.285C239.385 237.849 238.885 236.336 238.338 234.685C238.253 234.43 238.168 234.172 238.081 233.911C236.595 229.324 234.82 223.744 233.287 215.999C231.577 207.366 231.529 201.84 232.105 196.034C232.337 193.651 234.029 191.435 235.771 189.091C238.249 185.814 240.832 182.37 239.502 178.215C239.193 177.254 238.625 176.249 238.028 175.193C236.931 173.241 235.748 171.17 235.924 168.858C235.985 168.05 236.431 167.31 236.867 166.578C237.347 165.774 237.817 164.985 237.76 164.15C237.546 161.032 237.101 158.023 236.708 155.353C236.199 151.901 235.78 149.005 236.05 147.148C236.534 143.844 235.459 140.387 234.374 136.882C233.544 134.195 232.707 131.493 232.562 128.795C232.147 121.103 229.817 110.667 226.659 99.8464C225.465 95.7494 226.393 92.1195 227.608 87.4785C228.365 84.5901 229.238 81.3042 229.791 77.2663C230.104 74.9677 228.932 73.1074 227.853 71.3822C226.859 69.7807 225.942 68.2927 226.335 66.7019C226.421 66.3531 226.594 66.0318 226.83 65.7319C227.544 64.8435 228.839 64.1466 230.083 63.4775C231.926 62.4874 233.66 61.5573 233.245 60.1742C233.024 59.4385 232.086 58.5792 230.973 57.5624C230.532 57.1602 230.066 56.7314 229.603 56.2774C229.966 56.284 230.291 56.2741 230.536 56.2625C232.269 56.1881 233.11 54.703 233.935 53.2427C234.265 52.6609 234.59 52.0831 234.97 51.6041C236.367 49.8236 236.457 46.7003 236.27 44.2201C236.191 43.1788 236.684 42.2124 237.259 41.0902C237.769 40.0943 238.346 38.9756 238.646 37.58C238.817 36.7836 239.291 36.1634 239.686 35.6255C239.972 35.2411 240.216 34.9145 240.271 34.6201C240.318 34.3652 239.811 34.1852 239.241 33.983C238.831 33.8375 238.387 33.6795 238.092 33.4739C237.387 32.9824 237.15 32.3212 237.347 31.8417C237.438 31.6203 237.623 31.4401 237.808 31.2615C238.023 31.0533 238.239 30.8465 238.306 30.5723C238.61 29.3111 237.989 28.1543 237.342 26.9195C236.631 25.5453 235.893 24.1208 236.321 22.4927C236.456 21.9804 236.794 21.4272 237.122 20.8934C237.465 20.3345 237.796 19.7933 237.871 19.3438C238.173 17.519 236.855 15.7964 235.646 14.271C234.841 13.2502 234.085 12.2926 233.881 11.3864C233.51 9.74634 231.981 8.84987 230.854 8.22974C230.27 7.90369 229.791 7.63818 229.636 7.34535C229.666 7.06943 229.703 6.78979 229.745 6.51634C229.844 6.26273 229.946 6.00099 229.9 5.76199C229.896 5.74379 229.889 5.72617 229.885 5.70816C230.181 4.17009 230.632 2.71353 231.079 1.18465C232.082 -2.25769 233.087 -5.46133 232.307 -8.99091C232.139 -9.73793 231.495 -10.4766 230.84 -11.2244C230.039 -12.1453 229.22 -13.0562 229.238 -14.0627C229.279 -16.474 230.203 -18.8956 231.118 -21.2481C232.487 -24.9285 233.838 -28.3194 232.12 -31.5219C231.554 -32.5587 230.636 -33.5502 229.712 -34.5372C229.197 -35.0803 228.677 -35.654 228.22 -36.2326C229.038 -36.1326 229.804 -36.0896 230.518 -36.0495C231.991 -35.9673 233.252 -35.8944 234.337 -35.3614C236.901 -34.147 240.424 -32.7731 242.952 -33.0207C243.638 -33.0879 244.405 -33.0766 245.177 -33.0622C247.115 -33.0253 249.093 -32.9928 249.948 -34.2295C250.524 -35.0474 251.839 -37.2191 250.318 -38.5269C249.987 -38.8107 249.343 -38.9696 248.627 -39.1466C247.34 -39.4638 245.816 -39.8456 245.428 -41.0965C245.362 -41.3068 245.302 -41.5357 245.245 -41.7716C245.02 -42.6999 244.769 -43.8223 243.732 -44.1921C242.538 -44.6278 241.188 -44.4903 239.613 -44.3299C237.562 -44.1208 235.126 -43.8721 232.157 -44.8024C231.57 -44.9868 231.36 -45.3623 231.201 -45.6449C231.089 -45.8441 231 -45.996 230.824 -46.0069C230.623 -46.0186 230.206 -45.9433 229.679 -45.847C227.821 -45.5055 224.571 -44.92 224.378 -47.0114C224.326 -47.5784 224.465 -48.2108 224.59 -48.8246C224.775 -49.7114 224.928 -50.4389 224.392 -50.5232C224.188 -50.5545 223.968 -50.5751 223.74 -50.5909C223.787 -51.2867 223.835 -51.9777 223.884 -52.6639C224.5 -53.5523 224.418 -54.7844 224.314 -56.3666C224.289 -56.7471 224.265 -57.1467 224.248 -57.5601C224.352 -58.9376 224.459 -60.2469 224.569 -61.6687C224.82 -62.7751 225.241 -63.9414 225.922 -65.1562C227.285 -67.6231 229.568 -69.8207 231.807 -71.8924C232.75 -72.7997 233.687 -73.686 234.543 -74.571C234.651 -74.2285 234.778 -73.9182 234.952 -73.6791C236.14 -72.0394 238.465 -71.3802 240.604 -70.825C242.027 -70.4468 243.368 -70.0905 244.238 -69.4834C245.832 -68.3693 247.682 -68.5025 249.048 -68.602C249.757 -68.6533 250.338 -68.6927 250.685 -68.5462C250.963 -68.4278 251.096 -68.1486 251.235 -67.8589C251.355 -67.6065 251.481 -67.3447 251.706 -67.1789C254.441 -65.1808 256.005 -65.8311 258.281 -66.7284C259.536 -67.2388 261.01 -67.828 263.015 -68.1122C265.14 -68.3603 265.763 -68.2959 266.623 -67.2486C267.663 -68.0881 268.704 -68.9157 269.746 -69.7315C269.674 -70.0463 269.015 -70.2777 267.921 -70.6011C265.966 -71.1551 265.236 -73.1669 264.671 -74.7003C264.41 -75.4105 264.182 -76.0204 263.882 -76.3632C262.288 -78.2274 260.076 -77.6987 258.13 -77.1954C257.058 -76.9219 256.067 -76.6667 255.303 -76.8609C254.977 -76.9445 254.653 -76.8194 254.324 -76.705C254.068 -76.6158 253.809 -76.524 253.542 -76.5195C251.603 -76.4698 250.16 -77.6265 248.823 -78.6755C248.057 -79.2776 247.323 -79.8469 246.55 -80.1615C246.314 -80.2574 246.074 -80.3336 245.841 -80.4052C245.5 -80.5096 245.175 -80.6114 244.897 -80.7701C244.264 -81.1271 243.838 -81.879 243.377 -82.7333C243.14 -83.1668 242.893 -83.6167 242.603 -84.04C242.226 -84.5881 241.461 -84.7887 240.662 -85.002C240.097 -85.1525 239.515 -85.3104 239.037 -85.5944C238.173 -86.0873 237.871 -87.1823 237.594 -88.1622C237.473 -88.5905 237.353 -89.0017 237.197 -89.3477C237.133 -89.4884 237.002 -89.5574 236.821 -89.5752C236.24 -91.1141 235.656 -92.8009 235.088 -94.2797C232.382 -102.23 229.524 -108.211 233.591 -121.652C234.037 -123.025 234.468 -124.785 234.934 -126.656C235.141 -127.521 235.288 -128.436 235.398 -129.387C237.817 -135.434 240.405 -142.341 244.88 -150.506C247.23 -151.477 249.519 -152.884 251.908 -154.778C256.402 -158.274 260.108 -162.92 266.297 -167.47C267.736 -168.513 269.293 -169.517 270.992 -170.434C273.483 -171.645 276.289 -172.766 279.464 -173.521C287.28 -175.373 294.797 -176.6 302.842 -178.267C310.868 -179.948 319.826 -181.313 326.137 -182.196C329.565 -182.689 333.399 -181.696 336.882 -180.681C341.8 -179.258 346.006 -177.796 348.317 -180.648C349.057 -181.559 349.746 -183.09 350.408 -184.573C350.883 -185.63 351.361 -186.661 351.851 -187.436C353.296 -187.296 354.746 -187.146 356.173 -186.979C358.803 -185.328 362.709 -183.553 366.444 -185.553C367.899 -185.319 369.374 -185.073 370.76 -184.814C373.819 -184.271 376.775 -183.673 379.766 -183.023C380.731 -182.809 381.706 -182.589 382.687 -182.363C382.696 -182.36 382.705 -182.358 382.714 -182.356C384.699 -181.9 386.651 -181.422 388.593 -180.923C389.425 -180.71 390.252 -180.494 391.071 -180.274C393.157 -179.717 395.276 -179.132 397.314 -178.529C398.397 -178.208 399.499 -177.88 400.59 -177.544C402.349 -177.001 404.133 -176.436 405.893 -175.855C408.721 -174.918 411.541 -173.934 414.324 -172.909C414.781 -172.741 415.187 -172.375 415.447 -171.879C415.707 -171.382 415.801 -170.797 415.706 -170.226C415.609 -169.655 415.328 -169.132 414.925 -168.746C414.522 -168.362 414.029 -168.151 413.551 -168.136C410.631 -168.046 407.708 -167.923 404.811 -167.759C403.009 -167.659 401.197 -167.541 399.423 -167.41C398.322 -167.33 397.217 -167.248 396.134 -167.156C394.096 -166.982 391.994 -166.793 389.946 -166.583C389.141 -166.499 388.331 -166.413 387.52 -166.323C385.62 -166.112 383.726 -165.885 381.817 -165.64C381.806 -165.639 381.795 -165.637 381.783 -165.636C380.85 -165.515 379.923 -165.389 379.012 -165.259C376.165 -164.866 373.388 -164.431 370.552 -163.956C369.104 -163.699 367.558 -163.436 366.064 -163.156C365.23 -163 364.402 -162.839 363.578 -162.675C363.13 -162.588 362.677 -162.5 362.223 -162.41C351.81 -160.297 341.76 -157.591 332.144 -154.173C322.592 -150.766 313.508 -146.628 305.783 -141.739C301.712 -139.162 298.001 -136.349 295.068 -133.485C295.359 -132.813 295.379 -132.085 294.836 -129.544C294.049 -125.814 293.189 -119.264 292.278 -111.76C295.66 -65.5873 307.342 2.828 313.925 61.4156C313.996 61.996 314.067 62.5776 314.139 63.1603C315.297 72.5282 316.552 82.2159 317.832 91.7257C319.12 101.341 320.43 110.806 321.759 120.538C322.167 123.499 322.579 126.529 323.001 129.651Z" fill="white"/>
<path d="M323.69 154.128C342.644 153.416 360.768 162.84 379.762 163.293C392.305 163.594 405.049 161.485 417.834 159.841C429.143 158.391 440.473 157.306 451.648 158.559C475.298 161.222 499.155 164.913 522.839 169.634C546.538 174.357 570.16 180.124 593.571 187.018C601.296 189.299 609.043 191.71 616.674 194.222C632.142 199.299 647.456 204.818 662.651 210.971C678.048 217.26 693.266 223.998 708.125 232.424C712.625 235.045 716.902 237.552 721.639 241.338L722.105 241.643C723.931 243.498 725.752 245.387 727.488 248.32C728.511 250.168 730.306 253.682 728.541 257.717C726.06 262.029 723.613 262.123 721.622 263.012C719.577 263.693 717.662 264.102 715.766 264.491C715.029 264.638 714.163 264.357 713.343 263.688C712.523 263.017 711.815 262.02 711.359 260.88C710.904 259.739 710.732 258.525 710.86 257.477C710.987 256.433 711.401 255.646 711.983 255.257C713.474 254.268 714.894 253.266 715.87 252.341C716.346 251.889 716.713 251.436 716.713 251.207C716.749 251.03 716.154 250.889 715.183 252.707C714.424 254.195 714.504 256.094 714.656 256.852C714.802 257.682 714.843 257.875 714.694 257.936C714.269 257.999 712.881 257.258 711.393 256.717L712.134 257.201C710.012 256.747 706.464 255.989 703.168 255.487C704.177 250.484 704.369 246.471 702.694 244.105C701.892 242.916 700.318 242.014 698.817 242.516C697.431 242.954 696.219 244.147 694.997 245.266C693.717 246.436 692.599 247.579 691.451 247.76C689.549 248.082 687.334 249.671 685.108 251.383C684.293 252.005 683.418 252.628 682.604 253.225C677.249 252.825 671.825 252.522 666.395 252.294C664.449 251.291 662.777 250.47 661.096 250.309C659.667 250.183 658.139 250.94 656.546 251.954C655.701 251.931 654.88 251.915 654.032 251.894C648.593 251.767 643.085 251.68 637.645 251.653C633.792 249.571 629.626 247.497 624.054 245.976C621.616 245.314 619.35 244.206 617.105 243.138C614.464 241.89 612.061 240.73 609.607 240.421C608.976 240.343 608.349 240.326 607.725 240.385C605.724 240.573 603.853 239.574 601.922 238.575C599.387 237.243 596.815 235.918 594.1 237.501C592.392 238.496 590.809 239.778 589.31 240.964C586.952 242.856 584.903 244.518 583.25 244.438C580.164 244.289 577.312 245.541 574.789 246.651C571.795 247.991 569.237 249.12 567.37 247.366C567.084 247.1 566.759 246.752 566.393 246.358C564.443 244.277 561.347 240.955 556.261 242.051C554.412 242.438 552.664 243.768 550.887 245.069C548.281 246.962 545.885 248.819 543.491 247.658C543.144 247.485 542.824 246.871 542.53 246.309C542.157 245.596 541.829 244.973 541.554 245.462C540.746 246.896 539.529 248.451 538.2 250.145C537.215 251.388 536.223 252.712 535.264 254.11C528.885 254.373 522.519 254.644 516.155 254.909C513.195 255.027 510.342 255.153 507.375 255.269C506.052 252.903 504.705 250.762 503.194 249.11C501.195 246.949 498.571 246.149 495.059 245.118C492.512 244.361 489.523 243.481 486.086 241.859C479.71 238.855 472.92 239.069 468.572 240.244C467.643 240.492 466.705 240.76 465.696 241.053C461.945 242.169 457.226 243.563 448.315 244.971C439.921 246.306 432.779 246.473 427.478 246.611C424.731 246.681 422.471 246.738 420.741 246.944C419.022 247.149 417.065 247.329 414.988 247.501C413.513 247.628 411.978 247.749 410.431 247.871C404.627 248.323 398.908 248.797 395.586 249.552C394.423 249.822 393.197 250.161 391.869 250.524C388.164 251.53 383.76 252.748 377.618 253.376C371.246 254.036 367.243 253.404 363.175 252.126C361.511 251.607 360.068 249.658 358.576 247.644C356.458 244.787 354.278 241.807 351.199 242.629C350.481 242.821 349.71 243.265 348.903 243.731C347.414 244.587 345.833 245.517 344.221 245.071C343.659 244.915 343.171 244.385 342.692 243.866C342.165 243.295 341.647 242.737 341.051 242.696C338.823 242.546 336.648 242.642 334.728 242.73C332.246 242.842 330.159 242.937 328.871 242.463C326.568 241.617 324.054 242.31 321.49 243.017C319.535 243.557 317.55 244.107 315.65 243.977C310.212 243.603 302.698 244.905 294.958 247.143C292.029 247.989 289.566 246.773 286.409 245.213C284.444 244.243 282.207 243.136 279.425 242.318C277.848 241.854 276.504 242.907 275.258 243.881C274.107 244.778 273.042 245.607 271.959 245.127C271.002 244.703 270.408 242.911 269.843 241.209C269.215 239.316 268.622 237.535 267.612 237.875C267.075 238.056 266.417 238.946 265.636 240.004C265.327 240.423 264.996 240.865 264.646 241.304C264.666 240.941 264.672 240.617 264.674 240.371C264.685 238.637 263.658 237.718 262.651 236.817C262.249 236.458 261.848 236.102 261.52 235.698C260.312 234.209 258.013 233.956 256.258 234.017C255.516 234.042 254.847 233.501 254.059 232.869C253.361 232.309 252.574 231.676 251.57 231.306C250.998 231.096 250.56 230.591 250.198 230.17C249.935 229.865 249.712 229.604 249.505 229.535C249.325 229.476 249.178 229.972 249.012 230.532C248.893 230.934 248.764 231.37 248.606 231.655C248.229 232.334 247.747 232.538 247.41 232.318C247.255 232.216 247.132 232.022 247.011 231.829C246.869 231.604 246.729 231.378 246.534 231.298C245.639 230.932 244.771 231.496 243.856 232.082C242.853 232.726 241.808 233.395 240.652 232.89C240.288 232.731 239.901 232.367 239.526 232.014C239.134 231.645 238.753 231.289 238.429 231.193C237.113 230.805 235.873 232.042 234.736 233.18C233.973 233.937 233.252 234.649 232.585 234.811C231.363 235.107 230.706 236.595 230.222 237.693C229.971 238.262 229.767 238.73 229.553 238.871C229.357 238.829 229.159 238.78 228.965 238.726C228.787 238.616 228.603 238.502 228.43 238.538C228.417 238.541 228.404 238.547 228.391 238.55C227.305 238.187 226.24 237.674 225.184 237.162C222.796 236.012 220.423 234.874 217.938 235.513C217.402 235.65 216.857 236.265 216.303 236.889C215.621 237.654 214.938 238.437 214.217 238.381C212.513 238.246 210.799 237.232 209.116 236.234C206.59 234.733 204.122 233.267 201.832 234.881C201.079 235.414 200.347 236.3 199.615 237.194C199.206 237.692 198.797 238.194 198.384 238.633C198.47 237.819 198.515 237.054 198.558 236.341C198.645 234.872 198.721 233.614 199.117 232.545C200.053 230.019 201.12 226.542 200.997 224.007C200.964 223.319 200.989 222.553 201.017 221.782C201.086 219.846 201.156 217.87 200.277 216.977C199.684 216.375 198.166 214.995 197.208 216.477C196.999 216.8 196.873 217.439 196.733 218.15C196.48 219.427 196.183 220.939 195.272 221.292C195.116 221.352 194.947 221.406 194.773 221.456C194.077 221.656 193.3 221.876 193.012 222.903C192.681 224.086 192.755 225.439 192.842 227.018C192.955 229.073 193.089 231.515 192.377 234.459C192.236 235.041 191.966 235.241 191.761 235.393C191.617 235.5 191.507 235.585 191.496 235.76C191.485 235.962 191.532 236.38 191.592 236.909C191.803 238.776 192.169 242.038 190.672 242.18C190.268 242.218 189.805 242.064 189.391 241.925C188.78 241.72 188.275 241.551 188.209 242.085C188.184 242.287 188.166 242.507 188.152 242.735C187.668 242.672 187.184 242.609 186.701 242.546C186.088 241.912 185.192 241.969 184.093 242.043C183.826 242.061 183.545 242.078 183.253 242.088C182.287 241.96 181.325 241.832 180.366 241.702C179.605 241.435 178.797 240.998 177.945 240.304C176.254 238.912 174.702 236.613 173.238 234.364C172.617 233.416 172.003 232.476 171.383 231.618C171.622 231.511 171.839 231.385 172.005 231.212C173.143 230.028 173.595 227.708 174.01 225.573C174.286 224.152 174.546 222.813 174.985 221.947C175.79 220.362 175.701 218.512 175.635 217.144C175.601 216.435 175.575 215.854 175.681 215.508C175.768 215.231 175.968 215.1 176.176 214.965C176.357 214.847 176.544 214.723 176.664 214.5C178.081 211.785 177.645 210.215 177.011 207.93C176.666 206.669 176.242 205.19 176.046 203.182C175.875 201.056 175.927 200.433 176.688 199.583C176.088 198.535 175.487 197.487 174.889 196.439C174.656 196.508 174.482 197.166 174.24 198.258C173.805 200.209 172.37 200.928 171.257 201.49C170.741 201.75 170.293 201.978 170.042 202.278C168.704 203.874 169.108 206.085 169.462 208.031C169.657 209.102 169.836 210.093 169.704 210.857C169.648 211.184 169.732 211.507 169.818 211.837C169.883 212.092 169.951 212.351 169.955 212.618C169.982 214.557 169.195 216.001 168.468 217.341C168.051 218.109 167.656 218.846 167.43 219.621C167.363 219.857 167.309 220.098 167.259 220.331C167.186 220.673 167.114 220.998 167.001 221.277C166.744 221.913 166.209 222.343 165.625 222.812C165.326 223.053 165.014 223.304 164.72 223.6C164.338 223.982 164.205 224.75 164.064 225.552C163.964 226.119 163.86 226.703 163.665 227.185C163.312 228.056 162.592 228.374 161.927 228.669C161.637 228.797 161.357 228.925 161.122 229.089C161.026 229.155 160.981 229.288 160.972 229.469C159.883 230.083 158.856 230.709 157.816 231.324C152.688 234.403 148.261 237.076 141.676 235.222C140.402 234.872 139.05 234.957 137.699 235.259C133.427 234.54 129.002 233.802 124.657 233.049C123.768 231.312 122.694 229.858 121.446 228.722C119.156 226.588 116.625 226.16 113.831 225.655C113.287 225.557 112.729 225.456 112.157 225.339C110.463 225.012 108.644 224.559 106.657 223.695C102.037 221.727 97.3022 220.083 92.0271 219.294C86.7768 218.507 80.6469 217.995 76.4439 217.878C74.0627 217.816 71.6502 216.322 69.2989 214.941C66.0639 212.995 63.1387 211.264 61.4449 213.989C60.9166 214.86 60.4394 216.354 59.9836 217.807C59.6643 218.841 59.3305 219.852 58.991 220.609C58.0049 220.417 57.042 220.229 56.1025 220.036C54.301 218.338 51.5534 216.56 49.1521 218.662C48.1327 218.47 47.1297 218.28 46.1979 218.085C44.0663 217.688 42.0353 217.288 39.9805 216.9C39.292 216.772 38.6165 216.644 37.9561 216.517C37.9494 216.515 37.9427 216.514 37.936 216.512C36.5248 216.261 35.1655 216.011 33.813 215.766C33.2573 215.66 32.6301 215.562 32.0637 215.46C30.5989 215.204 29.0851 214.963 27.65 214.724C26.8482 214.602 26.1091 214.478 25.3026 214.363C24.0546 214.169 22.7402 213.994 21.4774 213.823C19.3992 213.551 17.3162 213.312 15.188 213.089C14.8396 213.051 14.469 212.814 14.1593 212.412C13.8494 212.01 13.6236 211.479 13.5289 210.908C13.4342 210.337 13.4762 209.759 13.6402 209.279C13.8042 208.801 14.08 208.464 14.4002 208.318C16.3594 207.432 18.3315 206.564 20.349 205.733C21.5713 205.223 22.8643 204.714 24.0964 204.233C24.8961 203.932 25.6263 203.647 26.4264 203.356C27.8526 202.818 29.3727 202.286 30.8397 201.777C31.4067 201.577 32.0391 201.373 32.5942 201.177C33.9556 200.714 35.3235 200.262 36.7492 199.815C36.7579 199.812 36.7655 199.81 36.7737 199.807C37.4317 199.59 38.1077 199.374 38.7958 199.159C40.8622 198.508 42.9081 197.877 45.055 197.257C46.1025 196.929 47.2926 196.601 48.4042 196.278C49.018 196.099 49.6424 195.918 50.2671 195.741C50.6072 195.646 50.9636 195.551 51.3094 195.456C59.1428 193.239 66.992 191.195 74.917 189.267C82.8361 187.34 90.714 185.532 98.605 183.817C102.842 182.884 107.126 181.978 111.503 181.097C114.993 180.362 118.723 179.642 122.249 178.941C172.391 169.185 222.737 161.633 273.235 157.263C280.441 156.637 287.834 156.089 295.057 155.612C302.36 155.136 309.518 154.73 316.839 154.406C319.061 154.304 321.351 154.213 323.69 154.128Z" fill="white"/>
<path d="M435.092 471.846C435.897 493.267 426.729 513.821 426.69 535.47C426.68 540.971 427.049 546.694 427.625 552.227C429.837 573.06 435.398 593.599 435.663 612.394C435.749 618.647 435.966 624.859 436.308 629.902C436.512 634.895 437.593 638.898 435.874 636.624C432.639 632.389 431.741 633.652 433.208 635.15C434.596 636.78 437.676 639.052 441.348 641.182C441.487 641.263 441.628 641.344 441.769 641.425C440.148 641.002 439.455 641.085 439.273 641.228C439.092 641.382 439.408 641.626 439.919 641.853C441.017 642.32 442.932 642.742 445.183 643.044C449.664 643.657 455.253 643.865 461.021 643.843C472.648 643.78 485.23 642.866 497.904 641.619C523.506 639.061 549.829 635.137 576.035 630.426C582.234 629.308 588.464 628.126 594.654 626.899L594.378 627.007C605.449 624.688 616.192 621.667 626.674 617.34C630.981 615.565 635.234 613.585 639.441 611.398L639.219 611.575C641.837 610.091 644.327 608.583 646.756 606.9C651.402 603.697 655.859 599.816 660.202 595.721C660.81 595.15 661.748 594.862 662.835 594.948C663.927 595.03 665.086 595.456 666.078 596.18C667.07 596.905 667.829 597.885 668.221 598.914C668.614 599.936 668.587 600.941 668.183 601.711C665.26 607.25 662.032 612.868 657.958 618.333C655.898 621.106 653.643 623.783 651.434 626.269L651.087 626.546C648.394 629.365 645.596 632.114 642.681 634.785C638.924 631.235 635.584 628.877 632.362 628.91C630.715 628.93 628.805 629.672 627.983 631.239C627.245 632.648 627.099 634.458 626.939 636.188C626.772 637.997 626.584 639.723 625.69 640.773C624.177 642.553 623.315 645.406 622.317 648.409C621.954 649.501 621.576 650.614 621.145 651.697C616.728 654.681 612.216 657.483 607.668 660.135L607.324 660.269C605.949 661.052 604.567 661.834 603.178 662.613C600.621 662.996 598.322 663.382 596.547 664.251C594.957 665.031 593.807 666.58 592.747 668.37C591.85 668.857 590.951 669.343 590.051 669.828C584.247 672.952 578.393 676.008 572.496 679.001C567.23 679.343 561.745 679.768 554.961 681.302C552.02 681.968 549.003 682.138 546.076 682.298C541.769 682.529 537.714 682.716 534.609 684.366C532.523 685.473 529.971 685.458 527.462 685.42C524.044 685.385 520.726 685.301 518.34 687.939C516.85 689.596 515.601 691.453 514.387 693.185C512.456 695.94 510.796 698.328 508.843 698.943C505.198 700.092 502.354 702.396 499.798 704.417C496.744 706.843 494.077 708.867 491.182 707.905C490.74 707.76 490.225 707.551 489.648 707.312C486.604 706.043 481.88 703.991 475.903 706.646C473.826 707.58 471.875 709.408 470.01 711.17C467.247 713.742 464.493 716.206 460.93 715.66C460.41 715.577 459.823 715.054 459.295 714.574C458.622 713.963 458.045 713.426 457.784 713.966C456.966 715.553 455.585 717.345 454.044 719.27C452.945 720.683 451.607 722.179 450.394 723.721C440.434 724.541 431.793 727.243 411.093 721.109C410.771 721.013 410.449 720.915 410.126 720.816C405.745 719.473 401.241 717.891 396.535 715.892C395.221 712.695 393.829 709.631 392.11 706.827C389.873 703.135 385.992 700.063 380.841 694.688C377.119 690.694 372.434 685.388 368.637 676.504C368.401 675.942 368.169 675.375 367.942 674.804C362.951 660.667 361.318 651.839 358.647 646.118C358.111 644.887 357.569 643.649 357.002 642.351C354.874 637.457 352.322 631.379 349.545 620.26C346.938 609.683 346.11 601.057 345.512 594.497C345.208 591.064 344.99 588.466 344.66 586.27C344.102 582.731 343.593 578.316 343.116 573.847C342.368 567.027 341.696 559.944 340.845 556.153C340.573 554.912 340.246 553.602 339.897 552.183C339.855 552.026 339.813 551.866 339.771 551.706C338.671 547.531 337.344 542.313 336.582 535.297C335.783 527.874 336.341 523.286 337.546 518.475C338.036 516.55 339.961 514.838 341.95 513.062C344.772 510.546 347.718 507.985 346.854 504.406C346.652 503.586 346.197 502.709 345.72 501.787C344.844 500.098 343.895 498.237 344.322 496.366C344.471 495.717 344.995 495.145 345.509 494.584C346.074 493.966 346.626 493.36 346.66 492.669C346.787 490.077 346.67 487.576 346.566 485.346C346.431 482.46 346.322 480.046 346.787 478.556C347.618 475.895 346.91 472.957 346.192 470.004C345.643 467.742 345.087 465.439 345.213 463.24C345.574 456.915 344.273 448.225 342.079 439.217C341.249 435.811 342.482 432.948 344.07 429.283C345.057 427.005 346.186 424.416 347.038 421.186C347.52 419.356 346.484 417.788 345.528 416.326C344.647 414.979 343.834 413.729 344.33 412.474C344.769 411.367 346.57 410.697 348.281 410.062C350.185 409.355 351.976 408.692 351.653 407.508C351.481 406.879 350.602 406.101 349.559 405.175C349.147 404.809 348.71 404.419 348.278 404.006C348.64 404.034 348.964 404.046 349.21 404.052C350.944 404.09 351.882 402.913 352.803 401.763C353.17 401.303 353.533 400.848 353.944 400.47C355.457 399.085 355.76 396.415 355.741 394.38C355.733 393.518 356.289 392.752 356.94 391.848C357.517 391.047 358.169 390.146 358.565 388.99C358.791 388.331 359.307 387.835 359.737 387.425C360.049 387.128 360.316 386.876 360.39 386.638C360.454 386.432 359.962 386.25 359.407 386.047C359.008 385.9 358.576 385.741 358.296 385.552C357.626 385.104 357.437 384.531 357.666 384.143C357.772 383.963 357.97 383.824 358.166 383.687C358.395 383.527 358.626 383.367 358.711 383.142C359.102 382.106 358.565 381.075 358.007 380.006C357.393 378.826 356.756 377.625 357.3 376.274C357.471 375.853 357.847 375.41 358.212 374.983C358.595 374.535 358.964 374.101 359.07 373.727C359.503 372.203 358.31 370.734 357.214 369.371C356.486 368.454 355.802 367.59 355.665 366.808C355.416 365.374 353.955 364.561 352.877 363.961C352.318 363.65 351.859 363.396 351.727 363.143C351.776 362.917 351.834 362.688 351.896 362.464C352.013 362.261 352.134 362.052 352.105 361.85C352.103 361.835 352.097 361.819 352.095 361.804C352.503 360.529 353.062 359.29 353.621 358.067C354.875 355.338 356.123 352.6 355.611 349.66C355.501 349.027 354.915 348.363 354.32 347.689C353.59 346.868 352.847 345.984 352.942 345.15C353.17 343.142 354.278 341.228 355.377 339.274C357.031 336.318 358.649 333.576 357.199 330.74C356.719 329.819 355.886 328.903 355.047 327.987C354.579 327.476 354.107 326.966 353.7 326.451C354.506 326.607 355.266 326.706 355.974 326.801C357.434 326.996 358.684 327.163 359.722 327.692C362.176 328.943 365.572 330.398 368.111 330.406C368.8 330.409 369.563 330.484 370.331 330.562C372.259 330.759 374.227 330.955 375.179 329.995C375.82 329.342 377.305 327.705 375.9 326.458C375.594 326.19 374.965 326 374.267 325.788C373.012 325.407 371.526 324.951 371.244 323.861C371.197 323.677 371.156 323.479 371.12 323.274C370.974 322.459 370.816 321.554 369.815 321.153C368.662 320.679 367.306 320.668 365.725 320.661C363.665 320.651 361.218 320.642 358.341 319.573C357.773 319.361 357.597 319.019 357.463 318.762C357.369 318.581 357.293 318.442 357.119 318.417C356.92 318.388 356.499 318.414 355.966 318.448C354.085 318.567 350.799 318.773 350.789 316.95C350.787 316.459 350.982 315.913 351.159 315.426C351.419 314.708 351.634 314.119 351.108 313.998C350.908 313.953 350.691 313.915 350.465 313.88C350.491 313.743 350.517 313.606 350.543 313.469C350.624 313.036 350.706 312.606 350.787 312.176C351.477 311.495 351.501 310.471 351.526 309.209C351.532 308.903 351.541 308.581 351.557 308.249C351.772 307.165 351.986 306.083 352.207 304.959C352.544 304.09 353.055 303.185 353.826 302.256C355.371 300.416 357.805 298.854 360.185 297.337C361.188 296.7 362.183 296.075 363.097 295.438C363.181 295.72 363.286 295.978 363.443 296.183C364.515 297.585 366.784 298.301 368.874 298.955C370.263 299.391 371.574 299.803 372.395 300.383C373.899 301.448 375.751 301.49 377.12 301.531C377.83 301.551 378.412 301.569 378.747 301.716C379.015 301.835 379.127 302.069 379.244 302.312C379.345 302.523 379.451 302.742 379.663 302.893C382.237 304.734 383.843 304.365 386.179 303.826C387.467 303.53 388.979 303.186 390.998 303.132C393.133 303.117 393.749 303.223 394.528 304.14C395.627 303.555 396.725 302.988 397.826 302.373C397.779 302.1 397.139 301.846 396.073 301.477C394.17 300.817 393.588 299.115 393.131 297.81C392.92 297.204 392.735 296.681 392.459 296.372C390.997 294.689 388.756 294.963 386.782 295.217C385.696 295.355 384.691 295.483 383.943 295.263C383.623 295.17 383.292 295.242 382.955 295.314C382.695 295.371 382.43 295.426 382.164 295.408C380.228 295.283 378.867 294.229 377.602 293.266C376.877 292.713 376.182 292.189 375.431 291.871C375.202 291.774 374.967 291.693 374.739 291.616C374.406 291.504 374.089 291.395 373.821 291.243C373.212 290.898 372.834 290.256 372.422 289.558C372.211 289.201 371.99 288.829 371.724 288.473C371.378 288.016 370.628 287.779 369.842 287.549C369.287 287.384 368.716 287.211 368.255 286.942C367.422 286.455 367.177 285.59 366.948 284.795C366.849 284.448 366.749 284.115 366.609 283.829C366.552 283.713 366.425 283.65 366.246 283.623C365.741 282.327 365.22 281.065 364.712 279.818C362.153 273.709 359.949 268.293 362.515 260.797C362.997 259.427 363.068 257.773 362.916 256.203C364.12 251.207 365.363 246.23 366.653 241.235C368.491 240.375 370.069 239.318 371.359 237.975C373.784 235.426 374.523 232.715 375.424 229.418C376.084 227.044 376.84 224.286 378.42 221.259C381.087 216.086 383.498 210.792 385.353 204.628C386.697 200.166 388.121 195.128 389.333 190.832C389.765 189.307 390.148 187.898 390.479 186.596C391.143 183.99 393.253 181.511 395.216 179.234C397.981 176.014 400.47 173.145 398.298 170.6C397.603 169.789 396.296 168.853 395.025 167.95C394.12 167.307 393.237 166.675 392.601 166.106C393.069 165.044 393.532 163.999 394.004 162.945C396.169 161.362 398.7 158.75 397.449 155.373C397.952 154.273 398.446 153.22 398.948 152.159C400.008 149.897 401.084 147.643 402.173 145.415C402.534 144.674 402.893 143.949 403.26 143.206C403.264 143.199 403.268 143.192 403.271 143.185C404.009 141.688 404.758 140.192 405.51 138.725C405.834 138.087 406.155 137.469 406.48 136.839C407.31 135.227 408.147 133.643 409.005 132.053C409.454 131.235 409.92 130.369 410.382 129.545C411.144 128.168 411.917 126.811 412.714 125.449C414.003 123.255 415.343 121.077 416.79 118.937C417.028 118.588 417.457 118.312 417.979 118.217C418.503 118.12 419.081 118.192 419.615 118.415C420.149 118.639 420.608 118.999 420.917 119.423C421.225 119.844 421.347 120.311 421.292 120.703C420.944 123.112 420.697 125.528 420.491 127.947C420.364 129.446 420.262 130.938 420.163 132.442C420.109 133.346 420.046 134.286 420.003 135.183C419.907 136.916 419.829 138.643 419.751 140.391C419.722 141.074 419.699 141.746 419.671 142.437C419.614 144.032 419.555 145.654 419.503 147.274C419.503 147.284 419.503 147.294 419.502 147.304C419.477 148.099 419.458 148.88 419.435 149.673C419.37 152.078 419.309 154.506 419.253 156.936C419.23 158.216 419.199 159.518 419.171 160.833C419.157 161.557 419.144 162.285 419.132 163.006C419.123 163.4 419.115 163.788 419.106 164.185C418.943 173.322 418.841 182.394 418.704 191.541C418.678 193.29 418.655 195.021 418.626 196.776C418.593 203.758 418.829 210.717 419.167 217.827C419.591 226.594 420.155 235.507 420.727 244.47C422.332 269.149 424.085 294.106 425.442 319.142C427.422 350.386 430.148 382.712 432.17 414.911C432.693 423.033 433.171 431.373 433.61 439.523C434.047 447.768 434.446 455.831 434.787 464.112C434.895 466.611 434.995 469.21 435.092 471.846Z" fill="white"/>
</svg>
